<svg width="552" height="416" viewBox="0 0 552 416" fill="none" xmlns="http://www.w3.org/2000/svg">
<g opacity="0.6">
<path opacity="0.6" fill-rule="evenodd" clip-rule="evenodd" d="M549.371 286.241C557.035 361.35 371.171 410.342 211.194 376.151C51.2159 341.962 -22.1742 208.447 54.1644 137.306C130.503 66.1632 541.707 211.132 549.371 286.241Z" fill="#F85959"/>
</g>
<path d="M164.456 166.98C170.403 171.711 171.89 183.241 171.89 188.415L173.129 189.155L171.89 181.024V177.328L175.607 182.502L189.235 203.938L196.05 221.677L194.811 234.243L193.572 236.46L197.908 241.635L228.882 232.765L231.98 236.46L256.14 221.677L267.29 204.677V215.764L272.246 217.982H284.636L288.353 221.677L272.246 232.026L256.14 243.113L230.121 257.157L225.165 261.592L230.741 285.245L235.697 297.81L251.184 316.289L258.618 322.942L278.441 341.42L285.255 353.247L275.963 353.986H251.184H212.776L197.289 355.464L173.129 351.029L165.466 345.211L166.934 353.247L163.217 353.986L103.127 355.464L95.0737 359.16V348.073L117.375 257.157L122.331 241.635L130.384 232.765L134.293 232.432C134.403 229.418 134.459 225.915 134.101 224.634C133.482 222.417 131.004 207.633 131.004 206.155C131.004 204.677 130.384 175.111 130.384 172.154C130.384 169.789 138.231 161.806 142.155 158.11L153.925 154.414C154.957 156.632 158.509 162.249 164.456 166.98Z" fill="white"/>
<path d="M282.93 158.122L304.069 165.883V168.793L298.377 189.164L287.808 219.237L266.67 216.326L268.296 204.686L270.735 194.985L278.052 166.853L282.93 158.122Z" fill="white"/>
<path d="M210.298 125.587L214.634 112.283C211.33 109.08 204.723 102.526 204.723 101.934C204.723 101.343 191.507 98.2386 184.899 96.7603L161.978 112.283L168.173 147.762L183.041 152.936H199.767L204.723 144.066L210.298 140.37V125.587Z" fill="white"/>
<path d="M363.93 324.42L381.276 307.419L383.134 313.333L391.188 324.42L414.704 335.561L406.675 328.855L404.197 315.55L402.958 285.984L405.436 268.983L422.162 267.505L456.853 266.027L459.331 270.462L463.667 302.984L460.57 331.072L451.278 353.247L437.649 354.725L434.109 351.769H371.983L368.886 335.507L363.93 324.42Z" fill="white"/>
<path d="M303.84 328.855L300.123 329.594V339.942L306.318 353.247L323.044 351.769L328 338.464V329.594L326.761 326.637L303.84 328.855Z" fill="white"/>
<path d="M456.853 240.156L452.516 263.07L426.498 266.027L405.436 267.505L402.958 260.853L392.426 249.026L376.32 224.634L367.647 202.459L363.93 183.98L374.461 199.503L392.426 221.677L405.436 245.33L407.294 234.982L404.197 218.721L401.719 188.415V149.24L405.436 135.935L410.392 170.676L419.684 221.677L424.02 218.721L422.162 180.285L425.259 151.458L434.551 127.805L433.312 161.806L437.029 215.764L441.985 243.113L446.941 210.59L454.375 170.676L456.853 155.153L466.765 137.414L474.198 134.457L460.57 178.067L458.092 198.024L456.853 240.156Z" fill="white"/>
<path fill-rule="evenodd" clip-rule="evenodd" d="M378.367 305.671C376.536 308.198 373.832 310.073 371.757 312.384C369.578 314.811 367.213 316.931 365.043 319.329C355.469 305.367 342.354 296.806 330.992 285.221C325.606 279.728 321.637 272.277 318.733 264.631C317.245 260.711 316.145 256.677 315.284 252.501C314.896 250.62 314.517 248.745 314.264 246.839C313.957 244.53 313.877 244.333 312.572 242.531C312.01 241.756 310.921 239.49 309.821 239.739C308.894 239.95 307.2 243.314 306.614 244.145C303.799 248.143 301.07 252.261 298.105 256.104C293.571 261.983 289.442 267.769 285.232 274.001C276.619 286.75 267.328 298.752 257.952 310.749C257.257 311.638 255.636 314.247 254.637 314.598C253.422 315.024 251.448 313.246 250.225 312.253C247.272 309.854 244.945 306.885 242.42 303.913C237.495 298.111 234.159 289.968 231.916 282.22C230.572 277.583 229.699 272.775 228.313 268.153C227.735 266.227 226.426 263.859 227.09 262.182C227.288 261.682 228.548 260.353 228.993 260.251C229.518 260.131 230.394 260.99 230.577 260.931C232.32 260.361 231.353 258.184 232.39 257.012C232.978 256.348 235.968 256.445 236.861 256.08C240.125 254.743 243.053 252.195 246.139 250.674C259.057 244.305 272.133 238.111 283.286 227.712C286.178 225.015 288.1 222.989 291.551 221.246C295.038 219.484 298.544 217.913 302.103 216.376C305.242 215.02 308.399 213.749 311.643 212.777C315.15 211.726 320.125 210.393 323.629 211.747C330.51 214.405 332.733 221.171 335.473 228.308C339.181 237.963 343.664 247.101 348.524 255.988C357.873 273.088 369.244 288.432 378.367 305.671Z" fill="#FF5678"/>
<path fill-rule="evenodd" clip-rule="evenodd" d="M171.124 154.5C170.745 154.271 167.789 155.707 167.293 155.926C165.31 156.804 163.443 158.262 161.576 159.448C163.007 161.526 164.439 163.605 165.869 165.684C167.272 161.578 169.075 158.19 171.124 154.5ZM172.1 180.045C171.613 180.11 175.724 191.898 176.204 193.222C177.951 198.035 179.785 202.802 181.555 207.604C183.27 212.257 185.446 216.538 187.638 220.885C189.513 224.603 191.441 230.372 194.269 233.126C192.483 223.674 192.718 212.806 187.597 204.87C182.288 196.643 177.039 188.609 172.1 180.045ZM378.367 306.093C370.434 291.104 360.503 277.843 352.231 263.122C347.599 254.878 343.09 246.53 339.191 237.755C336.355 231.373 334.592 222.266 330.212 217.386C328.282 215.236 326.219 213.132 323.629 212.169C320.084 210.851 315.204 212.157 311.643 213.199C305.007 215.141 298.524 218.155 292.239 221.322C285.863 224.533 280.424 230.301 274.664 234.935C268.484 239.908 261.795 243.529 254.872 246.7C248.844 249.461 243.481 253.424 237.485 256.203C236.291 256.757 233.852 256.675 232.85 257.398C231.77 258.175 232.195 260.471 230.884 261.318C230.293 261.7 230.096 260.315 229.641 260.338C229.086 260.365 228.58 261.143 228.044 261.635C225.865 263.642 227.2 264.979 228.063 267.74C230.876 276.734 232.387 285.884 236.336 294.375C239.583 301.354 244.229 307.608 249.7 312.229C250.533 312.932 253.246 315.657 254.222 315.475C255.102 315.313 256.891 312.523 257.498 311.766C260.253 308.328 262.771 304.63 265.525 301.187C269.779 295.867 273.875 290.403 278.004 285.01C282.797 278.748 287.039 271.654 291.356 264.964C293.342 261.887 295.898 259.38 298.105 256.526C301.074 252.689 303.799 248.564 306.615 244.568C307.466 243.358 308.893 240.265 310.217 240.301C311.145 240.326 312.78 242.932 313.266 243.749C315.069 246.785 315.061 252.267 315.958 256.056C318.146 265.296 322.092 274.32 327.504 281.45C332.886 288.541 339.78 293.583 346.146 299.282C353.041 305.457 359.574 311.775 365.043 319.751C367.213 317.354 369.578 315.232 371.757 312.806C373.832 310.495 376.536 308.62 378.367 306.093ZM276.25 348.499C277.793 348.518 280.405 349.65 281.784 348.968C277.692 343.565 273.933 338.929 268.756 334.97C263.382 330.861 258.027 326.788 252.808 322.406C242.291 313.573 234.555 303.098 230.162 288.389C229.03 284.601 228.273 280.629 227.444 276.735C226.998 274.638 226.11 264.827 224.602 263.98C223.709 263.478 216.987 269.115 215.921 269.818C213.431 271.461 210.932 272.735 208.357 274.021C202.823 276.786 197.119 278.894 191.25 280.655C184.215 282.765 179.422 279.273 175.064 272.675C170.119 265.19 166.01 256.744 161.489 248.883C159.433 245.307 157.73 241.738 156.212 237.794C155.218 235.214 151.277 228.252 152.638 225.503C156.524 229.032 157.922 236.05 160.568 240.776C163.867 246.666 167.584 252.219 170.9 258.103C173.688 263.051 176.533 269.047 180.652 272.604C184.275 275.733 187.718 274.771 191.617 273.365C196.343 271.661 201.242 270.821 205.874 268.708C210.886 266.421 215.629 263.177 220.519 260.532C222.799 259.298 225.529 258.597 227.677 257.059C229.529 255.735 229.253 255.035 229.388 252.214C229.547 248.923 229.73 245.63 229.852 242.336C229.934 240.123 228.931 237.122 229.612 235.47C224.06 236.618 218.633 238.157 213.12 239.518C210.102 240.263 207.191 241.184 204.142 241.769C202.98 241.992 201.391 241.986 200.35 242.59C199.52 242.305 199.096 242.486 199.08 243.132C199.04 243.483 198.977 243.829 198.891 244.169C197.189 245.093 196.199 243.111 194.722 241.21C192.9 238.864 191.536 236.221 190.199 233.464C187.21 227.3 183.765 221.503 180.999 215.165C178.18 208.705 175.891 201.787 173.501 195.084C171.308 188.935 169.904 182.284 167.481 176.28C166.4 173.6 165.029 171.384 163.429 169.12C162.109 167.252 160.077 163.222 158.105 162.364C157.584 162.137 156.218 162.518 155.626 162.468C154.445 162.367 153.393 161.85 152.185 161.963C149.569 162.207 146.717 164.181 144.627 165.916C145.978 167.353 149.357 169.099 146.93 171.688C144.574 174.2 143.273 169.693 142.374 167.718C138.141 171.866 138.753 177.584 138.264 183.444C138.009 186.503 137.337 189.516 136.903 192.529C136.591 194.698 136.81 196.941 136.721 199.155C136.494 204.782 136.02 210.168 136.043 215.715C136.067 221.645 136.406 227.372 136.803 233.259C137.473 243.17 139.006 253.085 140.322 262.917C141.062 268.444 142.074 273.814 143.058 279.251C144.173 285.422 146.237 291.268 147.395 297.423C148.574 295.634 149.461 295.625 151.369 295.862C152.836 296.045 153.822 295.628 153.736 298.058C153.68 299.634 152.515 300.838 151.226 301.113C149.545 301.471 148.973 300.471 148.107 298.951C147.904 301.828 149.526 304.837 150.167 307.647C150.774 310.31 151.176 312.921 152.197 315.469C153.192 317.956 154.044 320.409 155.051 322.871C155.515 324.004 155.949 325.155 156.418 326.285C156.655 326.858 156.934 327.646 157.288 328.128C158.119 329.259 157.987 328.711 158.958 329.355C161.076 330.759 160.281 330.409 160.33 333.307C160.378 336.165 161.607 338.265 163.577 339.872C167.756 343.281 171.879 344.229 176.631 345.952C181.058 347.557 185.721 348.934 190.409 348.903C196.151 348.865 201.817 347.966 207.559 347.875C213.893 347.775 220.288 347.816 226.61 348.078C229.214 348.185 231.633 348.323 234.147 349.117C237.066 350.039 239.89 349.673 242.9 349.533C249.319 349.235 255.96 348.643 262.296 348.589C266.858 348.551 271.671 348.171 276.25 348.499ZM442.718 351.468C443.859 352.188 446.417 351.892 447.565 351.693C449.586 351.341 449.802 350.385 451.085 348.235C453.292 344.532 455.084 340.985 456.383 336.696C458.868 328.486 459.883 320.087 460.974 311.499C462.186 301.956 459.972 292.065 459.18 282.587C458.998 280.412 458.749 278.258 458.461 276.1C458.289 274.81 458.244 270.42 457.532 269.303C456.165 267.158 449.808 268.888 447.308 269.083C440.331 269.627 433.309 269.754 426.335 269.848C422.617 269.899 418.878 270.084 415.197 270.119C413.506 270.135 411.853 270.034 410.156 269.838C409.589 269.773 409.035 269.617 408.463 269.579C406.505 269.45 406.653 269.111 406.147 271.18C405.26 274.803 405.942 279.413 405.71 283.173C405.398 288.199 405.23 293.295 405.307 298.331C405.378 302.985 405.245 307.628 405.391 312.292C405.452 314.223 405.628 315.798 406.055 317.642C406.538 319.728 407.069 324.6 408.272 326.043C408.409 326.208 409.431 325.825 409.702 326.234C410.12 326.864 410.043 328.198 410.33 328.605C411.259 329.924 413.179 330.029 414.572 330.621C418.393 332.247 421.898 334.012 425.5 336.205C428.718 338.163 433.906 339.831 435.841 343.695C436.728 345.466 436.847 347.802 437.663 349.63C438.592 351.712 436.734 350.624 439.009 351.468C440.034 351.848 441.667 351.468 442.718 351.468ZM103.467 327.92C103.177 332.728 100.907 337.308 100.117 342.035C99.7472 344.249 99.12 346.425 98.6854 348.625C98.2686 350.736 96.7628 353.236 96.9153 355.325C102.473 352.963 108.102 352.368 113.911 351.731C119.417 351.127 125.233 350.887 130.692 350.884C136.255 350.88 142.203 350.232 147.931 350.132C153.921 350.027 160.002 349.841 165.906 349.1C162.819 346.372 158.956 343.81 156.677 340.015C154.199 335.889 152.912 330.719 150.731 326.366C146.356 317.628 143.574 306.787 141.281 296.971C136.65 277.155 131.475 257.705 130.228 237.152C127.855 238.602 125.971 244.228 124.783 247.03C123.266 250.608 122.472 254.486 121.486 258.288C119.455 266.119 118.05 274.24 115.564 281.997C110.812 296.825 107.758 312.803 103.467 327.92ZM405.157 212.429C406.185 221.292 408.34 230.269 408.423 239.238C408.441 241.211 408.161 243.403 408.505 245.348C408.874 247.426 410.071 249.262 410.762 251.236C411.859 254.37 414.638 260.793 411.958 263.449C411.904 260.929 409.971 257.729 408.998 255.525C407.53 252.205 405.603 249.17 404.012 245.932C400.683 239.155 396.952 232.523 392.661 226.549C388.482 220.729 383.665 215.567 379.233 210.025C377.902 208.36 367.22 192.335 366.796 192.559C370.109 207.804 375.741 221.069 383.449 233.833C387.228 240.09 391.764 244.208 396.364 249.509C400.195 253.924 407.416 258.644 406.091 265.878C412.08 265.191 418.029 264.093 424.072 264.093C423.078 254.967 422.317 245.986 420.543 237.01C418.529 226.818 417.165 216.32 415.46 206.038C413.721 195.54 410.771 185.377 408.935 174.9C407.178 164.867 405.668 154.851 404.379 144.706C403.315 150.328 403.707 156.502 403.33 162.237C402.944 168.097 402.981 173.849 403.109 179.743C403.347 190.691 404.325 201.507 405.157 212.429ZM431.107 160.233C431.141 155.547 431.902 150.924 432.137 146.249C432.209 144.814 433.406 135.028 432.29 134.518C431.371 136.906 431.157 139.963 430.323 142.47C429.49 144.974 428.375 147.359 427.576 149.88C425.844 155.342 425.246 161.523 425.06 167.33C424.638 180.465 424.42 193.57 425.16 206.705C425.477 212.335 425.72 217.975 425.633 223.616C425.538 229.823 424.741 235.211 425.709 241.367C426.666 247.463 427.268 253.534 427.587 259.72C427.811 264.061 427.901 263.754 431.372 263.449C433.878 263.228 436.409 263.464 438.918 263.327C437.745 246.407 437.553 229.452 435.679 212.597C434.723 203.998 434.697 195.275 433.509 186.708C432.919 182.453 431.928 178.283 431.359 174.022C430.748 169.448 431.049 164.842 431.107 160.233ZM177.26 149.585C183.943 150.276 191.052 152.659 197.901 151.085C196.772 150.54 193.817 149.787 195.147 147.633C196.499 145.443 198.778 148.221 200.126 147.934C200.958 147.757 202.795 143.61 203.308 142.751C204.471 140.8 204.611 140.46 206.703 139.959C208.729 139.476 209.189 140 209.445 137.596C209.74 134.832 208.939 131.724 209.018 128.897C209.189 122.812 210.834 117.476 212.365 111.751C205.859 113.439 199.498 115.442 192.845 116.531C190.001 116.996 185.577 118.069 182.994 115.763C182.322 115.163 182.43 114.353 181.88 113.658C180.958 112.492 179.248 111.285 177.94 110.953C169.893 108.909 169.109 122.596 173.141 127.717C174.151 129.001 175.556 129.635 176.59 130.811C177.971 132.379 178.084 134.031 178.286 136.425C178.663 140.914 178.15 145.421 176.545 149.528L177.26 149.585ZM274.908 214.2C277.283 214.738 279.762 214.615 282.144 215.074C282.99 215.237 285.527 215.806 286.271 215.216C287.407 214.315 287.811 211.009 288.348 209.47C289.293 206.762 290.629 204.401 291.53 201.644C295.211 190.383 298.644 179.077 303.097 168.201C301.39 167.671 300.08 167.651 298.36 167.377C296.568 167.092 294.944 165.828 293.235 165.285C291.61 164.769 289.908 164.9 288.299 164.3C287.412 163.97 286.651 163.235 285.777 162.978C284.383 162.569 282.757 162.33 281.929 163.422C281.079 164.541 280.781 167.61 280.319 169.056C279.088 172.909 277.658 176.626 276.627 180.567C275.697 184.121 274.813 187.638 273.994 191.224C273.129 195.01 271.423 198.131 270.385 201.748C269.594 204.501 268.849 207.316 268.731 210.251C268.616 213.116 268.267 213.298 270.667 213.756C271.879 213.986 273.768 214.845 274.908 214.2ZM431.199 348.257C431.818 348.601 432.401 348.556 432.949 348.12C427.585 345.416 422.367 341.667 416.771 339.813C411.522 338.073 406.42 335.995 401.363 333.853C397.254 332.113 393.56 330.758 389.845 327.694C387.59 325.835 385.586 323.744 384.037 321.027C382.312 318.001 381.928 313.696 380.06 310.971C377.538 314.276 374.575 316.778 371.592 319.404C370.559 320.313 368.083 322.293 367.73 323.699C367.285 325.473 368.478 327.17 369.069 328.965C370.58 333.563 371.319 338.158 372.139 342.938C372.468 344.854 373.178 347.734 374.497 348.536C375.698 349.266 379.176 348.735 380.67 348.6C388.467 347.895 396.125 347.173 403.969 347.815C412.844 348.542 422.347 349.043 431.199 348.257ZM446.772 263.062C448.189 263.067 449.573 262.856 450.985 262.856C450.17 258.316 452.075 252.441 452.75 247.909C453.506 242.84 454.081 237.598 454.585 232.488C455.648 221.725 456.129 211.092 456.143 200.251C456.156 189.759 457.756 180.172 459.998 170.087C462.406 159.255 466.348 149.515 469.608 139.069C466.032 141.325 464.053 146.602 462.174 150.636C459.799 155.738 458.217 161.386 457.247 167.113C455.376 178.16 453.324 189.241 451.165 200.27C448.917 211.754 447.595 223.344 445.02 234.734C443.764 240.288 442.056 247.122 441.961 252.85C441.922 255.219 441.324 260.182 442.224 262.24C443.065 264.165 444.926 263.258 446.772 263.062ZM232.883 248.813C232.809 249.992 232.738 251.114 232.563 252.279C234.525 252.257 237.011 249.827 238.694 248.736C240.745 247.407 242.798 245.941 244.804 244.606C248.676 242.026 253.072 240.327 257.206 238.208C261.955 235.774 266.32 232.833 270.862 229.902C272.449 228.878 283.85 222.981 283.659 221.37C281.156 221.271 278.653 221.172 276.149 221.072C274.003 220.987 270.679 221.566 268.624 220.774C267.499 220.34 266.235 218.744 265.81 217.493C265.39 216.256 266.335 210.564 265.785 210.201C262.984 213.614 261.222 218.151 258.717 221.832C255.949 225.902 252.373 228.278 248.431 230.44C244.077 232.829 239.572 234.678 235.123 236.725C233.247 237.588 233.284 238.082 233.12 240.536C232.938 243.28 232.957 246.062 232.883 248.813ZM459.095 352.027C463.814 352.632 468.65 352.287 473.406 352.758C475.137 352.93 477.535 353.185 475.795 355.956C474.698 357.701 471.186 357.142 469.593 357.263C465.316 357.587 460.788 357.413 456.501 357.337C455.599 357.322 454.602 357.001 453.689 357.074C452.636 357.156 451.375 358.06 450.416 358.053C449.824 358.049 449.612 357.304 449.102 357.236C447.991 357.087 446.88 356.978 445.759 356.979C428.816 356.983 412.106 356.577 395.205 356.555C387.123 356.545 378.912 356.378 370.834 355.926C369.137 355.83 359.476 356.244 359.744 352.6C359.881 350.723 363.034 350.458 364.185 350.259C365.038 350.111 365.922 350.135 366.777 350.08C369.046 349.935 370.04 350.586 369.562 347.623C367.746 336.385 364.492 327.097 357.539 319.016C351.854 312.408 345.009 306.414 338.57 300.897C330.751 294.197 324.409 287.15 319.767 276.898C317.056 270.911 314.787 264.79 313.394 258.17C312.893 255.789 312.881 253.08 312.267 250.784C311.795 249.017 310.718 247.78 310.084 245.949C302.305 261.451 291.995 274.421 282.542 288.399C278.025 295.077 272.872 301.419 267.476 307.229C265.874 308.953 264.38 310.753 262.885 312.608C261.634 314.161 259.649 315.541 258.594 317.264C257.581 318.916 257.83 318.837 259.372 320.15C261.409 321.884 263.655 323.325 265.725 325.016C269.033 327.72 272.644 330.004 275.603 333.258C278.802 336.777 281.597 340.853 284.393 344.821C286.257 347.466 288.703 350.859 289.171 354.203C289.327 355.309 289.916 358.045 289.138 358.856C288.473 359.548 288.54 359.285 287.715 358.863C286.633 358.31 286.315 357.04 284.993 356.434C281.612 354.886 277.521 355.418 274.003 355.399C270.484 355.38 266.936 355.852 263.418 355.835C255.385 355.795 247.524 356.571 239.494 356.988C230.965 357.43 222.332 356.369 213.831 356.519C207.533 356.63 201.067 356.069 194.595 356.486C191.266 356.701 187.997 356.204 184.751 356.148C180.501 356.075 176.137 356.765 171.85 356.863C164.815 357.025 157.866 357.024 150.788 357.226C135.563 357.661 120.42 358.11 105.187 358.398C103.155 358.436 100.93 358.354 98.9218 358.626C96.7904 358.917 97.8908 359.457 96.4283 360.373C92.3342 362.935 93.2797 353.436 93.3778 351.568C93.9041 341.556 96.0343 331.737 98.5942 322.232C101.023 313.217 102.994 303.782 105.051 294.572C107.303 284.492 110.236 274.825 112.9 264.844C115.629 254.616 117.851 243.99 122.808 234.924C123.938 232.859 125.104 230.637 126.921 229.335C128.957 227.876 129.044 228.728 129.043 226.058C129.042 223.542 129.171 220.181 128.674 217.781C128.224 215.612 128.294 216.898 127.281 215.34C126.457 214.073 125.595 213.207 125.004 211.669C121.373 216.062 113.061 213.744 109.553 210.581C105.259 206.709 101.988 200.177 100.79 193.955C99.8275 188.96 101.009 179.437 105.643 177.035C107.902 175.863 116.199 174.978 116.532 171.161C116.703 169.191 113.782 166.42 113.108 164.726C111.86 161.588 110.66 157.413 110.313 153.972C109.635 147.257 112.191 139.747 116.261 135.211C123.727 126.89 136.865 122.619 146.469 127.899C144.439 118.648 143.214 110.667 144.236 101.044C145.117 92.7543 149.216 88.1161 154.857 83.9867C164.483 76.9392 177.573 74.1576 188.579 76.2068C191.08 76.6726 193.481 77.6716 195.796 78.4664C199.161 79.6211 203.188 79.2366 206.365 81.1127C208.668 82.4726 210.417 85.1816 212.44 86.9904C214.802 89.102 216.764 92.2536 218.405 95.1683C221.914 101.401 220.543 112.969 217.606 119.225C216.976 120.567 216.198 121.697 215.156 122.612C214.071 123.565 212.417 123.862 211.858 125.098C210.426 128.264 211.807 135.118 211.998 138.541C212.221 142.514 210.537 145.499 206.761 145.816C204.577 146 204.507 144.487 203.461 147.599C202.783 149.616 202.167 151.813 201.189 153.662C199.172 157.472 195.477 157.1 192.112 156.997C188.217 156.877 184.38 156.143 180.482 155.68C181.512 159.615 184.329 162.669 186.089 166.175C188.468 170.917 189.9 174.847 190.287 180.372C190.584 184.616 189.943 187.968 187.509 191.127C186.501 192.435 185.608 192.499 185.858 194.008C186.011 194.928 187.344 196.446 187.816 197.18C189.065 199.123 190.514 200.906 191.613 202.981C195.841 210.964 197.089 223.133 197.1 232.426C197.1 232.852 197.291 233.758 197.133 234.199C197.016 234.525 196.129 235.556 196.116 235.644C195.943 236.839 196.919 238.887 198.451 239.09C200.06 239.302 203.007 237.7 204.504 237.174C206.9 236.331 209.341 235.709 211.731 234.844C215.591 233.446 219.434 232.331 223.358 231.236C225.131 230.742 226.914 230.33 228.694 229.867C230.72 229.341 231.661 228.323 232.707 230.783C233.605 232.894 233.047 233.277 235.22 232.213C237.378 231.156 239.487 229.846 241.594 228.653C245.31 226.55 249.736 224.675 252.942 221.57C258.289 216.389 260.269 208.139 265.387 202.642C266.812 201.112 267.662 201.085 268.563 198.964C269.528 196.695 270.025 193.785 270.532 191.344C271.42 187.069 272.053 182.78 272.858 178.509C273.862 173.189 276.03 168.37 277.613 163.296C278.229 161.319 278.549 158.806 279.543 157.029C279.807 156.558 280.31 156.292 280.516 155.902C281.223 154.564 281.216 154.196 281.399 152.585C282.257 145.061 286.021 149.019 290.135 150.745C291.868 151.472 300.098 156.187 296.956 159.323C300.702 160.62 306.702 159.915 306.652 166.321C306.626 169.603 304.98 173.114 304.097 176.187C303.313 178.914 302.555 181.653 301.758 184.377C300.013 190.343 297.895 196.13 296.192 202.115C295.415 204.842 294.775 207.634 293.694 210.208C292.741 212.478 290.433 214.981 290.052 217.465C300.035 212.383 309.271 205.035 320.445 205.504C325.338 205.708 329.778 208.162 332.48 213.296C335.868 219.73 338.097 226.933 341.409 233.427C353.454 257.048 367.822 278.507 381.045 301.151C382.061 302.891 383.367 304.537 383.719 306.687C383.949 308.09 383.503 309.493 383.779 310.841C384.351 313.642 387.242 317.139 389.201 318.748C392.958 321.834 399.065 326.186 403.753 325.801C400.811 317.364 400.85 308.12 400.987 299.12C401.117 290.572 401.892 282.092 402.811 273.632C403.019 271.717 403.2 269.943 403.661 268.088C404.19 265.959 404.917 266.161 403.332 264.248C400.893 261.302 397.991 258.878 395.532 255.895C390.214 249.444 384.763 244.389 380.578 236.686C376.597 229.359 372.398 221.821 369.451 213.798C366.417 205.538 365.205 196.718 363.699 187.971C363.088 184.422 360.86 180.46 361.307 176.753C361.873 172.069 363.694 175.48 364.435 178.001C366.696 185.696 371.992 192.583 376.378 198.772C381.117 205.457 386.912 211.051 391.859 217.542C397.245 224.612 400.934 232.736 405.724 240.283C405.724 230.917 403.044 221.381 401.948 212.116C400.983 203.961 400.68 195.781 400.071 187.591C398.686 168.986 399.883 149.834 401.826 131.363C402.749 122.59 402.226 114.024 402.254 105.222C402.263 102.42 401.291 95.9636 402.529 93.4775C404.901 88.7159 406.285 99.1278 406.405 100.68C407.123 109.928 405.836 119.072 406.493 128.28C407.18 137.896 408.67 147.241 409.939 156.746C411.313 167.037 413.549 177.095 415.691 187.189C417.94 197.787 419.831 208.605 422.33 219.118C423.005 215.814 422.059 211.754 421.872 208.389C421.605 203.572 421.084 198.755 421.039 193.926C420.967 186.23 420.917 178.391 421.282 170.731C421.641 163.181 421.533 155.269 423.473 147.995C424.394 144.542 425.745 141.174 427.067 137.921C428.698 133.911 429.274 130.023 430.177 125.757C430.951 122.104 432.083 118.548 432.598 114.822C432.918 112.505 433.812 105.664 436.036 110.847C437.327 113.855 436.769 118.314 436.805 121.546C436.851 125.689 436.32 129.717 436.238 133.842C436.08 141.936 435.966 150.021 435.46 158.102C434.929 166.58 435.392 174.177 436.744 182.531C438.224 191.675 438.657 200.839 439.423 210.095C439.819 214.874 440.485 219.626 440.807 224.412C440.977 226.946 440.104 234.214 441.626 236.019C441.773 231.629 442.827 227.235 443.626 222.958C444.573 217.891 444.955 212.564 445.653 207.424C446.783 199.096 448.976 191.144 450.426 182.91C453.416 165.936 455.901 144.121 468.432 133.011C470.072 131.557 471.874 130.485 473.646 129.288C474.65 128.611 476.14 126.859 477.289 126.553C478.542 126.219 479.064 126.479 479.572 128.213C480.281 130.632 478.985 131.761 477.776 133.518C473.591 139.596 471.803 147.387 469.218 154.515C463.301 170.838 460.682 188.054 460.652 205.697C460.636 214.934 460.102 223.842 459.277 233.022C458.389 242.902 457.219 253.351 454.703 262.855C457.226 263.53 459.964 262.524 460.649 266.024C460.817 266.883 460.513 267.9 460.699 269.019C460.88 270.106 461.315 271.188 461.572 272.257C462.104 274.47 462.386 276.652 462.644 278.924C463.644 287.703 465.362 296.053 465.545 304.955C465.713 313.183 464.363 321.52 463.119 329.59C461.866 337.718 458.272 344.647 455.442 351.997C456.66 351.997 457.877 352.012 459.095 352.027Z" fill="black"/>
<path fill-rule="evenodd" clip-rule="evenodd" d="M298.948 333.341C297.606 333.793 291.127 334.648 291.128 337.073C291.129 338.528 297.599 338.499 298.744 338.658C298.812 336.886 298.88 335.113 298.948 333.341ZM313.248 350.078C316.981 350.925 322.048 349.734 324.435 345.807C325.551 343.972 326.079 341.181 326.443 338.991C326.79 336.904 327.86 331.697 327.131 329.74C326.237 327.338 317.66 329.849 315.162 330.125C310.804 330.604 306.297 330.661 301.936 330.322C301.936 335.695 301.706 340.931 304.354 345.555C306.265 348.891 309.853 349.679 313.248 350.078ZM312.497 356.714C308.441 354.943 304.182 356.094 301.541 350.898C300.871 349.58 300.306 348.162 299.901 346.698C299.702 346.057 299.548 345.4 299.439 344.727C299.645 343.278 299.201 342.87 298.105 343.501C295.955 343.003 293.597 344.764 291.333 344.244C285.84 342.986 286.838 333.597 290.524 330.348C291.252 329.705 291.979 329.527 292.813 329.209C294.65 328.511 295.645 329.291 297.325 329.093C298.684 328.933 299.057 327.233 300.517 326.485C301.472 325.995 302.799 326.033 303.803 325.984C309.061 325.726 314.335 325.728 319.627 325.319C322.095 325.129 324.759 325.595 327.177 325.092C328.309 324.856 328.146 323.957 329.218 324.746C330.328 325.562 329.849 328.582 329.793 329.786C329.469 336.749 329.121 344.216 325.995 350.303C323.135 355.873 317.508 356.442 312.497 356.714Z" fill="black"/>
<path fill-rule="evenodd" clip-rule="evenodd" d="M98.2697 358.632C99.5748 358.616 100.88 358.599 102.18 358.584C100.873 358.6 99.5716 358.616 98.2697 358.632Z" fill="black"/>
<path fill-rule="evenodd" clip-rule="evenodd" d="M460.66 210.179C460.658 208.683 460.655 207.187 460.652 205.694C460.655 207.191 460.658 208.685 460.66 210.179Z" fill="black"/>
<path fill-rule="evenodd" clip-rule="evenodd" d="M128.678 216.322C128.674 217.779 128.67 219.236 128.666 220.689C128.67 219.231 128.674 217.776 128.678 216.322Z" fill="black"/>
<path fill-rule="evenodd" clip-rule="evenodd" d="M237.16 356.981C238.199 356.983 239.237 356.984 240.27 356.987C239.23 356.986 238.196 356.984 237.16 356.981Z" fill="black"/>
<path fill-rule="evenodd" clip-rule="evenodd" d="M174.116 356.684C175.154 356.688 176.192 356.691 177.226 356.696C176.186 356.693 175.151 356.688 174.116 356.684Z" fill="black"/>
<path fill-rule="evenodd" clip-rule="evenodd" d="M401.124 296.17C401.079 297.153 401.032 298.136 400.987 299.118C401.033 298.133 401.079 297.152 401.124 296.17Z" fill="black"/>
<path fill-rule="evenodd" clip-rule="evenodd" d="M459.096 352.025C458.293 352.015 457.491 352.005 456.689 351.995C457.495 351.594 458.297 351.612 459.096 352.025Z" fill="black"/>
<path fill-rule="evenodd" clip-rule="evenodd" d="M387.858 356.379C388.434 356.368 389.01 356.358 389.58 356.347C389.003 356.356 388.43 356.368 387.858 356.379Z" fill="black"/>
<path fill-rule="evenodd" clip-rule="evenodd" d="M460.348 222.315C460.362 221.572 460.376 220.829 460.39 220.088C460.376 220.832 460.362 221.574 460.348 222.315Z" fill="black"/>
<path fill-rule="evenodd" clip-rule="evenodd" d="M406.494 128.278C406.446 127.511 406.398 126.745 406.35 125.98C406.398 126.747 406.446 127.512 406.494 128.278Z" fill="black"/>
<path fill-rule="evenodd" clip-rule="evenodd" d="M460.632 213.107C460.64 212.338 460.647 211.57 460.655 210.804C460.647 211.573 460.64 212.34 460.632 213.107Z" fill="black"/>
<path fill-rule="evenodd" clip-rule="evenodd" d="M279.53 355.426C280.042 355.435 280.554 355.444 281.062 355.451C280.549 355.442 280.039 355.434 279.53 355.426Z" fill="black"/>
<path fill-rule="evenodd" clip-rule="evenodd" d="M411.421 356.68C411.921 356.691 412.422 356.703 412.918 356.715C412.416 356.704 411.918 356.692 411.421 356.68Z" fill="black"/>
<path fill-rule="evenodd" clip-rule="evenodd" d="M465.487 302.639C465.451 301.965 465.415 301.291 465.38 300.618C465.416 301.293 465.452 301.966 465.487 302.639Z" fill="black"/>
<path fill-rule="evenodd" clip-rule="evenodd" d="M456.501 357.335C456.909 357.332 457.316 357.329 457.719 357.328C457.31 357.331 456.906 357.333 456.501 357.335Z" fill="black"/>
<path fill-rule="evenodd" clip-rule="evenodd" d="M400.99 356.709C401.393 356.698 401.797 356.686 402.196 356.675C401.791 356.687 401.39 356.699 400.99 356.709Z" fill="black"/>
<path fill-rule="evenodd" clip-rule="evenodd" d="M310.299 356.342C310.743 356.34 311.187 356.337 311.627 356.333C311.182 356.336 310.74 356.339 310.299 356.342Z" fill="black"/>
<path fill-rule="evenodd" clip-rule="evenodd" d="M207.882 356.341C208.304 356.344 208.726 356.348 209.144 356.352C208.72 356.349 208.301 356.345 207.882 356.341Z" fill="black"/>
<path fill-rule="evenodd" clip-rule="evenodd" d="M182.967 356.421C183.398 356.393 183.828 356.364 184.254 356.336C183.822 356.365 183.395 356.393 182.967 356.421Z" fill="black"/>
<path fill-rule="evenodd" clip-rule="evenodd" d="M302.249 160.685C301.608 160.619 300.968 160.554 300.327 160.487C300.968 160.541 301.647 160.088 302.249 160.685Z" fill="black"/>
<path fill-rule="evenodd" clip-rule="evenodd" d="M465.548 352.315C464.916 352.24 464.284 352.163 463.653 352.087C464.285 352.163 464.916 352.24 465.548 352.315Z" fill="black"/>
<path fill-rule="evenodd" clip-rule="evenodd" d="M421.489 165.326C421.446 165.986 421.403 166.647 421.361 167.305C421.404 166.644 421.446 165.985 421.489 165.326Z" fill="black"/>
<path fill-rule="evenodd" clip-rule="evenodd" d="M460.791 192.857C460.834 192.231 460.877 191.605 460.92 190.982C460.877 191.609 460.834 192.233 460.791 192.857Z" fill="black"/>
<path fill-rule="evenodd" clip-rule="evenodd" d="M421.237 175.569C421.192 176.228 421.146 176.887 421.101 177.544C421.146 176.884 421.192 176.226 421.237 175.569Z" fill="black"/>
<path fill-rule="evenodd" clip-rule="evenodd" d="M460.523 218.128C460.519 217.491 460.515 216.854 460.512 216.219C460.857 216.854 460.843 217.489 460.523 218.128Z" fill="black"/>
<path fill-rule="evenodd" clip-rule="evenodd" d="M401.134 309.622C401.129 310.26 401.124 310.899 401.119 311.535C400.764 310.891 400.835 310.255 401.134 309.622Z" fill="black"/>
<path fill-rule="evenodd" clip-rule="evenodd" d="M441.395 235.741C441.333 235.095 441.271 234.448 441.209 233.804C441.271 234.451 441.333 235.096 441.395 235.741Z" fill="black"/>
<path fill-rule="evenodd" clip-rule="evenodd" d="M108.018 176.418C107.599 177.079 107.028 176.626 106.531 176.707C107.027 176.61 107.522 176.515 108.018 176.418Z" fill="black"/>
<path fill-rule="evenodd" clip-rule="evenodd" d="M315.111 325.777C314.582 325.778 314.053 325.779 313.524 325.78C314.054 325.779 314.582 325.778 315.111 325.777Z" fill="black"/>
<path fill-rule="evenodd" clip-rule="evenodd" d="M399.644 179.131C399.693 179.668 399.743 180.205 399.792 180.74C399.743 180.202 399.693 179.667 399.644 179.131Z" fill="black"/>
<path fill-rule="evenodd" clip-rule="evenodd" d="M138.159 125.801C137.627 125.814 137.095 125.827 136.563 125.839C137.089 125.47 137.619 125.363 138.159 125.801Z" fill="black"/>
<path fill-rule="evenodd" clip-rule="evenodd" d="M421.224 184.857C421.189 185.421 421.155 185.983 421.121 186.544C421.155 185.981 421.189 185.419 421.224 184.857Z" fill="black"/>
<path fill-rule="evenodd" clip-rule="evenodd" d="M406.636 115.737C406.678 115.224 406.719 114.711 406.76 114.2C406.719 114.715 406.678 115.226 406.636 115.737Z" fill="black"/>
<path fill-rule="evenodd" clip-rule="evenodd" d="M402.457 114.129C402.415 114.686 402.373 115.243 402.331 115.798C402.373 115.24 402.415 114.685 402.457 114.129Z" fill="black"/>
<path fill-rule="evenodd" clip-rule="evenodd" d="M171.401 76.9322C170.86 77.0106 170.318 77.0889 169.777 77.1668C170.319 77.0885 170.86 77.0106 171.401 76.9322Z" fill="black"/>
<path fill-rule="evenodd" clip-rule="evenodd" d="M132.307 126.244C131.752 126.312 131.196 126.379 130.641 126.447C131.197 126.379 131.752 126.312 132.307 126.244Z" fill="black"/>
<path fill-rule="evenodd" clip-rule="evenodd" d="M436.682 127.877C436.716 127.359 436.75 126.84 436.783 126.325C436.75 126.843 436.715 127.36 436.682 127.877Z" fill="black"/>
<path fill-rule="evenodd" clip-rule="evenodd" d="M114.076 213.384C114.396 213.389 114.716 213.394 115.031 213.4C114.71 213.394 114.393 213.389 114.076 213.384Z" fill="black"/>
<path fill-rule="evenodd" clip-rule="evenodd" d="M402.473 277.33C402.441 277.903 402.409 278.477 402.376 279.049C402.409 278.475 402.441 277.902 402.473 277.33Z" fill="black"/>
<path fill-rule="evenodd" clip-rule="evenodd" d="M435.105 165.677C435.092 165.125 435.079 164.572 435.066 164.021C435.079 164.574 435.092 165.126 435.105 165.677Z" fill="black"/>
<path fill-rule="evenodd" clip-rule="evenodd" d="M185.026 75.6239C184.533 75.6239 184.039 75.6244 183.547 75.6244C184.04 75.22 184.533 75.2302 185.026 75.6239Z" fill="black"/>
<path fill-rule="evenodd" clip-rule="evenodd" d="M316.757 205.766C316.216 205.782 315.676 205.799 315.136 205.815C315.667 205.367 316.208 205.356 316.757 205.766Z" fill="black"/>
<path fill-rule="evenodd" clip-rule="evenodd" d="M363.986 355.404C364.306 355.411 364.627 355.419 364.943 355.428C364.621 355.421 364.303 355.412 363.986 355.404Z" fill="black"/>
<path fill-rule="evenodd" clip-rule="evenodd" d="M376.05 356.075C376.37 356.061 376.69 356.048 377.005 356.036C376.684 356.049 376.367 356.062 376.05 356.075Z" fill="black"/>
<path fill-rule="evenodd" clip-rule="evenodd" d="M187.24 356.341C187.574 356.351 187.908 356.361 188.237 356.37C187.902 356.361 187.571 356.351 187.24 356.341Z" fill="black"/>
<path fill-rule="evenodd" clip-rule="evenodd" d="M465.21 296.242C465.163 295.695 465.115 295.148 465.067 294.604C465.115 295.151 465.163 295.696 465.21 296.242Z" fill="black"/>
<path fill-rule="evenodd" clip-rule="evenodd" d="M421.632 204.087C421.671 204.608 421.708 205.129 421.746 205.646C421.708 205.125 421.67 204.606 421.632 204.087Z" fill="black"/>
<path fill-rule="evenodd" clip-rule="evenodd" d="M438.403 195.142C438.351 194.589 438.299 194.037 438.247 193.486C438.3 194.039 438.351 194.59 438.403 195.142Z" fill="black"/>
<path fill-rule="evenodd" clip-rule="evenodd" d="M189.948 356.67C190.284 356.664 190.621 356.658 190.954 356.653C190.616 356.659 190.282 356.665 189.948 356.67Z" fill="black"/>
<path fill-rule="evenodd" clip-rule="evenodd" d="M312.497 356.714C312.825 356.696 313.152 356.679 313.475 356.662C313.147 356.679 312.822 356.696 312.497 356.714Z" fill="black"/>
<path fill-rule="evenodd" clip-rule="evenodd" d="M435.665 154.802C435.65 154.242 435.636 153.682 435.621 153.123C435.636 153.684 435.651 154.242 435.665 154.802Z" fill="black"/>
<path fill-rule="evenodd" clip-rule="evenodd" d="M158.039 357.036C158.367 357.033 158.695 357.03 159.019 357.028C158.689 357.031 158.364 357.034 158.039 357.036Z" fill="black"/>
<path fill-rule="evenodd" clip-rule="evenodd" d="M435.528 357.031C435.866 357.034 436.203 357.039 436.537 357.043C436.197 357.039 435.863 357.035 435.528 357.031Z" fill="black"/>
<path fill-rule="evenodd" clip-rule="evenodd" d="M442.816 356.983C443.142 357.01 443.467 357.038 443.789 357.064C443.462 357.037 443.139 357.01 442.816 356.983Z" fill="black"/>
<path fill-rule="evenodd" clip-rule="evenodd" d="M445.759 356.976C446.091 356.987 446.423 356.999 446.751 357.007C446.418 356.996 446.089 356.986 445.759 356.976Z" fill="black"/>
<path fill-rule="evenodd" clip-rule="evenodd" d="M460.872 197.361C460.85 196.81 460.829 196.259 460.807 195.71C460.829 196.262 460.85 196.811 460.872 197.361Z" fill="black"/>
<path fill-rule="evenodd" clip-rule="evenodd" d="M238.152 349.757C239.162 349.696 240.171 349.634 241.181 349.572C240.171 349.634 239.162 349.695 238.152 349.757Z" fill="black"/>
<path fill-rule="evenodd" clip-rule="evenodd" d="M177.26 149.582C178.136 149.673 179.013 149.764 179.888 149.854C179.012 149.764 178.136 149.673 177.26 149.582Z" fill="black"/>
<path fill-rule="evenodd" clip-rule="evenodd" d="M424.636 195.032C424.663 196.03 424.691 197.027 424.719 198.022C424.691 197.024 424.663 196.028 424.636 195.032Z" fill="black"/>
<path fill-rule="evenodd" clip-rule="evenodd" d="M442.718 351.466C443.632 351.532 444.547 351.598 445.461 351.664C444.541 351.714 443.607 352.027 442.718 351.466Z" fill="black"/>
<path fill-rule="evenodd" clip-rule="evenodd" d="M437.305 233.474C437.312 232.523 437.319 231.571 437.326 230.622C437.319 231.574 437.312 232.524 437.305 233.474Z" fill="black"/>
<path fill-rule="evenodd" clip-rule="evenodd" d="M434.964 263.371C435.767 263.383 436.57 263.396 437.372 263.408C436.569 263.395 435.767 263.383 434.964 263.371Z" fill="black"/>
<path fill-rule="evenodd" clip-rule="evenodd" d="M232.942 246.642C232.922 247.367 232.902 248.092 232.882 248.814C232.903 248.088 232.922 247.365 232.942 246.642Z" fill="black"/>
<path fill-rule="evenodd" clip-rule="evenodd" d="M448.321 215.935C448.288 216.657 448.255 217.379 448.223 218.096C448.256 217.374 448.289 216.655 448.321 215.935Z" fill="black"/>
<path fill-rule="evenodd" clip-rule="evenodd" d="M431.199 348.255C431.783 348.207 432.367 348.161 432.95 348.116C432.511 348.535 432.069 348.57 431.199 348.255Z" fill="black"/>
<path fill-rule="evenodd" clip-rule="evenodd" d="M427.292 253.923C427.332 254.7 427.373 255.478 427.412 256.254C427.372 255.475 427.332 254.699 427.292 253.923Z" fill="black"/>
<path fill-rule="evenodd" clip-rule="evenodd" d="M208.999 131.143C209.005 130.392 209.011 129.64 209.018 128.892C209.012 129.644 209.006 130.394 208.999 131.143Z" fill="black"/>
<path fill-rule="evenodd" clip-rule="evenodd" d="M427.999 263.528L430.175 263.471C429.457 263.885 428.731 263.9 427.999 263.528Z" fill="black"/>
<path fill-rule="evenodd" clip-rule="evenodd" d="M448.074 269.072C447.561 269.077 447.048 269.082 446.538 269.088C447.053 269.083 447.564 269.078 448.074 269.072Z" fill="black"/>
<path fill-rule="evenodd" clip-rule="evenodd" d="M260.166 348.553C260.876 348.564 261.586 348.576 262.297 348.586C261.581 349.014 260.87 349.075 260.166 348.553Z" fill="black"/>
<path fill-rule="evenodd" clip-rule="evenodd" d="M126.359 351.051C127.08 350.974 127.801 350.897 128.522 350.82C127.801 350.897 127.08 350.974 126.359 351.051Z" fill="black"/>
<path fill-rule="evenodd" clip-rule="evenodd" d="M424.886 201.439C424.922 202.22 424.957 203 424.992 203.779C424.957 202.997 424.922 202.218 424.886 201.439Z" fill="black"/>
<path fill-rule="evenodd" clip-rule="evenodd" d="M194.784 151.415C195.392 151.058 196.005 150.998 196.624 151.377C196.01 151.39 195.398 151.403 194.784 151.415Z" fill="black"/>
<path fill-rule="evenodd" clip-rule="evenodd" d="M405.007 210.454C405.057 211.113 405.107 211.772 405.158 212.428C405.107 211.769 405.057 211.111 405.007 210.454Z" fill="black"/>
<path fill-rule="evenodd" clip-rule="evenodd" d="M456.346 195.087C456.033 194.443 456.044 193.802 456.362 193.166C456.357 193.807 456.352 194.447 456.346 195.087Z" fill="black"/>
<path fill-rule="evenodd" clip-rule="evenodd" d="M424.986 172.718C424.986 173.37 424.987 174.022 424.987 174.671C424.986 174.018 424.986 173.368 424.986 172.718Z" fill="black"/>
<path fill-rule="evenodd" clip-rule="evenodd" d="M446.772 263.059C447.397 262.83 448.023 262.507 448.646 263.067C448.021 263.065 447.397 263.062 446.772 263.059Z" fill="black"/>
<path fill-rule="evenodd" clip-rule="evenodd" d="M244.619 349.465C245.249 349.395 245.878 349.325 246.507 349.255C245.878 349.325 245.249 349.395 244.619 349.465Z" fill="black"/>
<path fill-rule="evenodd" clip-rule="evenodd" d="M158.324 349.467C158.9 349.164 159.476 349.006 160.044 349.49C159.47 349.482 158.897 349.474 158.324 349.467Z" fill="black"/>
<path fill-rule="evenodd" clip-rule="evenodd" d="M276.25 348.496C276.867 348.175 277.482 347.998 278.091 348.519C277.477 348.511 276.864 348.504 276.25 348.496Z" fill="black"/>
<path fill-rule="evenodd" clip-rule="evenodd" d="M139.015 253.329C139.061 253.993 139.108 254.657 139.154 255.32C139.107 254.655 139.061 253.992 139.015 253.329Z" fill="black"/>
<path fill-rule="evenodd" clip-rule="evenodd" d="M282.144 215.072C282.75 214.808 283.355 214.671 283.951 215.111C283.348 215.097 282.746 215.085 282.144 215.072Z" fill="black"/>
<path fill-rule="evenodd" clip-rule="evenodd" d="M424.877 234.843C424.911 235.492 424.945 236.141 424.978 236.789C424.944 236.139 424.91 235.491 424.877 234.843Z" fill="black"/>
<path fill-rule="evenodd" clip-rule="evenodd" d="M138.623 176.264C138.573 176.786 138.522 177.31 138.472 177.83C138.523 177.306 138.573 176.785 138.623 176.264Z" fill="black"/>
<path fill-rule="evenodd" clip-rule="evenodd" d="M103.467 327.917C103.436 328.427 103.405 328.935 103.374 329.441C103.406 328.932 103.436 328.424 103.467 327.917Z" fill="black"/>
<path fill-rule="evenodd" clip-rule="evenodd" d="M437.575 238.278C437.541 237.752 437.506 237.226 437.472 236.702C437.506 237.229 437.541 237.754 437.575 238.278Z" fill="black"/>
<path fill-rule="evenodd" clip-rule="evenodd" d="M393.402 347.514C393.943 347.518 394.483 347.523 395.023 347.527C394.483 347.523 393.942 347.518 393.402 347.514Z" fill="black"/>
<path fill-rule="evenodd" clip-rule="evenodd" d="M232.737 251.121C232.838 251.504 232.939 251.887 233.04 252.271C232.366 252.465 232.265 252.082 232.737 251.121Z" fill="black"/>
<path fill-rule="evenodd" clip-rule="evenodd" d="M273.261 214.206C273.81 214.203 274.359 214.2 274.908 214.197C274.36 214.508 273.811 214.721 273.261 214.206Z" fill="black"/>
<path fill-rule="evenodd" clip-rule="evenodd" d="M139.323 256.473C139.341 257.054 139.36 257.635 139.378 258.213C139.359 257.632 139.341 257.053 139.323 256.473Z" fill="black"/>
<path fill-rule="evenodd" clip-rule="evenodd" d="M145.13 350.102C145.66 350.101 146.19 350.101 146.719 350.1C146.189 350.101 145.66 350.101 145.13 350.102Z" fill="black"/>
<path fill-rule="evenodd" clip-rule="evenodd" d="M406.339 262.594C406.359 263.129 406.379 263.663 406.399 264.195C406.38 263.659 406.359 263.127 406.339 262.594Z" fill="black"/>
<path fill-rule="evenodd" clip-rule="evenodd" d="M133.881 350.753C134.402 350.341 134.924 350.377 135.447 350.747C134.925 350.749 134.403 350.751 133.881 350.753Z" fill="black"/>
<path fill-rule="evenodd" clip-rule="evenodd" d="M147.6 168.796C147.628 169.341 147.657 169.888 147.686 170.43C147.658 169.883 147.629 169.339 147.6 168.796Z" fill="black"/>
<path fill-rule="evenodd" clip-rule="evenodd" d="M131.17 350.81C131.712 350.812 132.253 350.815 132.795 350.818C132.251 351.259 131.71 351.28 131.17 350.81Z" fill="black"/>
<path fill-rule="evenodd" clip-rule="evenodd" d="M431.107 160.23C431.112 159.675 431.116 159.122 431.12 158.569C431.116 159.124 431.111 159.676 431.107 160.23Z" fill="black"/>
<path fill-rule="evenodd" clip-rule="evenodd" d="M182.433 150.535C182.951 150.616 183.47 150.697 183.987 150.777C183.469 150.696 182.951 150.616 182.433 150.535Z" fill="black"/>
<path fill-rule="evenodd" clip-rule="evenodd" d="M136.71 198.378C136.717 198.896 136.723 199.414 136.732 199.929C136.725 199.411 136.717 198.895 136.71 198.378Z" fill="black"/>
<path fill-rule="evenodd" clip-rule="evenodd" d="M434.596 198.304C434.567 197.777 434.539 197.249 434.511 196.725C434.539 197.253 434.568 197.779 434.596 198.304Z" fill="black"/>
<path fill-rule="evenodd" clip-rule="evenodd" d="M313.746 350.191C314.386 350.26 315.025 350.329 315.664 350.397C315.025 350.328 314.386 350.26 313.746 350.191Z" fill="black"/>
<path fill-rule="evenodd" clip-rule="evenodd" d="M311.61 330.443C311.264 330.449 310.919 330.455 310.577 330.464C310.923 330.459 311.267 330.451 311.61 330.443Z" fill="black"/>
<path fill-rule="evenodd" clip-rule="evenodd" d="M311.639 349.889C312.175 349.952 312.712 350.014 313.248 350.076C312.712 350.014 312.175 349.952 311.639 349.889Z" fill="black"/>
<path fill-rule="evenodd" clip-rule="evenodd" d="M215.137 306.802C215.835 311.506 209.708 316.106 209.222 309.419C209.044 306.974 210.415 305.255 211.949 303.76C214.127 301.638 215.344 303.67 215.137 306.802Z" fill="black"/>
<path fill-rule="evenodd" clip-rule="evenodd" d="M147.602 249.41C149.046 250.115 160.073 254.402 154.345 256.559C152.829 257.13 150.537 257.215 149.222 256.209C147.641 254.999 146.046 251.427 147.602 249.41Z" fill="black"/>
<path fill-rule="evenodd" clip-rule="evenodd" d="M150.316 185.707C154.059 185.188 157.508 192.524 152.893 192.286C149.534 192.112 145.017 185.707 150.316 185.707Z" fill="black"/>
<path fill-rule="evenodd" clip-rule="evenodd" d="M163.706 203.692C166.831 206.946 161.038 214.228 158.738 211.409C157.563 209.97 158.647 206.868 159.616 205.664C160.611 204.428 162.381 204.196 163.706 203.692Z" fill="black"/>
<path fill-rule="evenodd" clip-rule="evenodd" d="M173.01 288.044C171.165 288.394 163.051 291.558 164.743 285.811C165.389 283.62 167.189 284.27 168.834 284.371C171.487 284.532 173.01 284.381 173.01 288.044Z" fill="black"/>
<path fill-rule="evenodd" clip-rule="evenodd" d="M167.666 302.846C170.428 304.609 166.39 314.477 164.101 312.377C160.924 309.464 165.269 303.732 167.666 302.846Z" fill="black"/>
<path fill-rule="evenodd" clip-rule="evenodd" d="M179.713 294.914C181.056 294.259 187.388 301.526 184.977 303.548C183.742 304.584 181.401 302.808 180.657 301.737C179.26 299.728 179.134 297.25 179.713 294.914Z" fill="black"/>
<path fill-rule="evenodd" clip-rule="evenodd" d="M143.182 235.516C144.554 235.785 146.925 235.87 147.013 238.171C147.091 240.194 144.966 240.85 143.469 241.009C141.916 241.173 139.861 240.65 139.831 238.321C139.8 235.808 143.133 235.959 143.182 235.516Z" fill="black"/>
<path fill-rule="evenodd" clip-rule="evenodd" d="M177.035 335.678C178.497 336.737 185.316 340.55 182.393 343.305C181.299 344.336 177.983 342.207 177.237 341.125C176.346 339.833 175.476 336.807 177.035 335.678Z" fill="black"/>
<path fill-rule="evenodd" clip-rule="evenodd" d="M195.992 308.01C195.781 303.802 201.732 302.127 200.498 308.1C200.15 309.785 199.814 312.342 198.068 312.439C196.006 312.555 195.931 309.643 195.992 308.01Z" fill="black"/>
<path fill-rule="evenodd" clip-rule="evenodd" d="M177.609 234.822C177.65 238.015 172.523 240.831 172.483 235.77C172.448 231.248 177.8 229.924 177.609 234.822Z" fill="black"/>
<path fill-rule="evenodd" clip-rule="evenodd" d="M174.223 218.194C175.486 218.68 177.165 218.93 177.276 220.845C177.394 222.872 175.817 223.774 174.397 223.661C173.232 223.567 171.509 222.539 171.298 221.031C170.987 218.819 172.797 218.674 174.223 218.194Z" fill="black"/>
<path fill-rule="evenodd" clip-rule="evenodd" d="M150.731 276.648C150.71 274.013 155.135 270.847 155.95 273.904C156.21 274.882 154.125 279.269 153.431 279.597C151.596 280.466 151.339 278.44 150.731 276.648Z" fill="black"/>
<path fill-rule="evenodd" clip-rule="evenodd" d="M186.992 320.497C185.496 322.094 181.011 326.58 181.346 320.558C181.56 316.711 187.386 316.912 186.992 320.497Z" fill="black"/>
<path fill-rule="evenodd" clip-rule="evenodd" d="M260.069 337.708C260.559 335.176 267.576 339.568 265.234 342.767C264.449 343.84 262.393 342.869 261.603 342.233C260.039 340.973 260.005 339.811 260.069 337.708Z" fill="black"/>
<path fill-rule="evenodd" clip-rule="evenodd" d="M220.97 283.509C221.244 282.38 221.548 280.384 222.451 279.664C224.084 278.361 225.506 280.327 225.506 282.398C225.506 286.264 221.819 287.483 220.97 283.509Z" fill="black"/>
<path fill-rule="evenodd" clip-rule="evenodd" d="M203.578 328.701C205.4 329.199 209.457 334.484 207.104 336.639C204.84 338.714 201.828 330.279 203.578 328.701Z" fill="black"/>
<path fill-rule="evenodd" clip-rule="evenodd" d="M205.313 288.7C207.655 288.923 210.875 293.449 207.234 294.169C204.386 294.732 201.074 289.809 205.313 288.7Z" fill="black"/>
<path fill-rule="evenodd" clip-rule="evenodd" d="M226.521 309.529C227.109 307.168 232.919 309.698 232.592 312.298C232.419 313.68 230.043 314.004 228.794 313.639C226.956 313.101 226.479 311.662 226.521 309.529Z" fill="black"/>
<path fill-rule="evenodd" clip-rule="evenodd" d="M158.036 177.654C158.078 174.601 162.994 173.357 163.354 176.433C163.68 179.212 157.974 182.17 158.036 177.654Z" fill="black"/>
<path fill-rule="evenodd" clip-rule="evenodd" d="M224.897 340.983C225.251 339.448 225.404 337.6 227.011 337.398C228.851 337.166 228.797 338.85 228.58 340.594C227.992 345.34 225.744 345.577 224.897 340.983Z" fill="black"/>
<path fill-rule="evenodd" clip-rule="evenodd" d="M147.266 213.972C144.703 214.662 140.009 208.772 142.878 207.509C144.9 206.617 147.266 212.195 147.266 213.972Z" fill="black"/>
<path fill-rule="evenodd" clip-rule="evenodd" d="M179.953 259.718C178.648 260.451 178.348 260.895 177.346 259.693C176.474 258.645 176.512 255.727 177.261 254.638C180.129 250.466 180.062 258.03 179.953 259.718Z" fill="black"/>
<path fill-rule="evenodd" clip-rule="evenodd" d="M190.594 251.257C191.954 251.463 195.996 256.038 193.891 257.856C191.312 260.083 189.853 253.106 190.594 251.257Z" fill="black"/>
<path fill-rule="evenodd" clip-rule="evenodd" d="M220.024 252.461C219.035 257.004 216.567 253.947 216.707 250.51C216.931 245.004 219.489 249.799 220.024 252.461Z" fill="black"/>
<path fill-rule="evenodd" clip-rule="evenodd" d="M235.03 325.424C236.703 326.25 238.973 333.88 236.584 334.289C233.9 334.748 234.794 327.013 235.03 325.424Z" fill="black"/>
<path fill-rule="evenodd" clip-rule="evenodd" d="M214.14 321.138C216.054 320.367 216.755 325.185 215.643 326.08C213.195 328.049 213.711 322.275 214.14 321.138Z" fill="black"/>
<path fill-rule="evenodd" clip-rule="evenodd" d="M195.992 308.011C195.968 308.65 195.944 309.29 195.919 309.925C195.943 309.285 195.967 308.648 195.992 308.011Z" fill="black"/>
<path fill-rule="evenodd" clip-rule="evenodd" d="M260.069 337.708C260.049 338.364 260.029 339.019 260.008 339.672C260.027 339.015 260.048 338.361 260.069 337.708Z" fill="black"/>
<path fill-rule="evenodd" clip-rule="evenodd" d="M226.521 309.529C226.511 310.085 226.499 310.642 226.487 311.195C226.498 310.637 226.51 310.083 226.521 309.529Z" fill="black"/>
<path fill-rule="evenodd" clip-rule="evenodd" d="M438.239 299.955C442.207 299.803 446.634 298.021 450.534 298.588C451.607 298.744 454.078 299.067 452.359 300.966C451.536 301.875 447.598 301.405 446.406 301.707C439.12 303.547 430.849 304.734 423.378 304.581C419.881 304.509 416.357 304.175 412.862 303.955C409.369 303.734 409.025 302.04 412.956 301.501C417.038 300.942 421.227 301.15 425.33 301.144C429.643 301.137 433.934 300.298 438.239 299.955Z" fill="black"/>
<path fill-rule="evenodd" clip-rule="evenodd" d="M446.951 288.547C446.569 289.844 446.234 292.822 444.77 293.018C442.72 293.291 442.381 289.092 442.456 287.556C442.548 285.702 443.107 282.622 445.038 283.265C446.669 283.807 446.833 287.063 446.951 288.547Z" fill="black"/>
<path fill-rule="evenodd" clip-rule="evenodd" d="M434.541 287.597C434.841 286.208 434.988 283.075 436.635 282.968C438.475 282.85 439.001 286.114 438.989 287.678C438.977 289.162 438.517 291.967 437.051 292.31C435.064 292.775 434.886 289.185 434.541 287.597Z" fill="black"/>
<path fill-rule="evenodd" clip-rule="evenodd" d="M413.873 290.089C413.277 291.759 412.882 294.059 411.037 292.921C409.61 292.04 409.411 288.489 409.68 286.863C409.959 285.179 410.55 283.246 412.172 284.004C414.042 284.878 413.853 288.25 413.873 290.089Z" fill="black"/>
<path fill-rule="evenodd" clip-rule="evenodd" d="M429.525 288.547C427.765 294.91 424.557 290.605 425.775 285.854C427.049 280.889 429.363 285.712 429.525 288.547Z" fill="black"/>
<path fill-rule="evenodd" clip-rule="evenodd" d="M420.953 288.862C420.465 289.982 419.945 292.399 418.628 292.145C417.014 291.832 416.962 288.125 417.139 286.744C417.293 285.536 417.748 283.522 419.1 283.548C421.052 283.586 420.921 287.412 420.953 288.862Z" fill="black"/>
<path fill-rule="evenodd" clip-rule="evenodd" d="M456.044 290.083C454.735 293.589 452.934 290.569 453.51 288.079C454.365 284.387 455.97 287.658 456.044 290.083Z" fill="black"/>
<path fill-rule="evenodd" clip-rule="evenodd" d="M423.973 301.148C422.543 301.142 421.112 301.135 419.682 301.129C421.113 300.807 422.545 300.682 423.973 301.148Z" fill="black"/>
<path fill-rule="evenodd" clip-rule="evenodd" d="M452.394 298.573C451.154 298.583 449.913 298.592 448.674 298.602C449.912 298.159 451.152 298.149 452.394 298.573Z" fill="black"/>
<path fill-rule="evenodd" clip-rule="evenodd" d="M438.239 299.955C437.246 300.034 436.253 300.114 435.261 300.193C436.254 300.114 437.246 300.034 438.239 299.955Z" fill="black"/>
<path fill-rule="evenodd" clip-rule="evenodd" d="M413.873 290.089C413.864 289.239 413.855 288.388 413.846 287.54C414.214 288.385 414.189 289.235 413.873 290.089Z" fill="black"/>
<path fill-rule="evenodd" clip-rule="evenodd" d="M421.656 304.563C422.231 304.569 422.807 304.575 423.378 304.581C422.801 304.575 422.228 304.569 421.656 304.563Z" fill="black"/>
<path fill-rule="evenodd" clip-rule="evenodd" d="M411.988 303.955C412.571 303.955 413.154 303.954 413.733 303.955C413.148 303.955 412.568 303.955 411.988 303.955Z" fill="black"/>
<path fill-rule="evenodd" clip-rule="evenodd" d="M416.769 301.222C415.958 301.301 415.147 301.381 414.336 301.46C415.147 301.381 415.958 301.301 416.769 301.222Z" fill="black"/>
<path fill-rule="evenodd" clip-rule="evenodd" d="M427.732 301.138C426.931 301.14 426.131 301.142 425.33 301.144C426.13 300.741 426.931 300.729 427.732 301.138Z" fill="black"/>
<path fill-rule="evenodd" clip-rule="evenodd" d="M420.953 288.862C420.933 287.976 420.914 287.089 420.895 286.204C420.915 287.091 420.934 287.977 420.953 288.862Z" fill="black"/>
<path fill-rule="evenodd" clip-rule="evenodd" d="M409.68 286.863C409.676 287.727 409.671 288.592 409.666 289.453C409.67 288.588 409.675 287.726 409.68 286.863Z" fill="black"/>
<path fill-rule="evenodd" clip-rule="evenodd" d="M442.788 299.633C442.08 299.71 441.373 299.786 440.666 299.862C441.374 299.786 442.081 299.71 442.788 299.633Z" fill="black"/>
<path fill-rule="evenodd" clip-rule="evenodd" d="M456.045 290.083C456.021 289.328 455.999 288.573 455.976 287.819C455.999 288.575 456.021 289.329 456.045 290.083Z" fill="black"/>
<path fill-rule="evenodd" clip-rule="evenodd" d="M425.933 304.587C426.426 304.577 426.918 304.566 427.406 304.556C426.912 304.567 426.422 304.578 425.933 304.587Z" fill="black"/>
<path fill-rule="evenodd" clip-rule="evenodd" d="M446.951 288.547C446.908 288.004 446.864 287.461 446.821 286.92C446.865 287.464 446.908 288.005 446.951 288.547Z" fill="black"/>
<path fill-rule="evenodd" clip-rule="evenodd" d="M429.525 288.547C429.493 287.99 429.461 287.432 429.429 286.876C429.461 287.434 429.493 287.991 429.525 288.547Z" fill="black"/>
<path fill-rule="evenodd" clip-rule="evenodd" d="M175.463 124.781C173.526 124.174 173.162 120.925 173.474 118.93C173.827 117.968 174.18 117.007 174.533 116.045C174.395 115.689 174.257 115.334 174.119 114.978C174.296 112.998 173.844 112.137 175.751 112.939C179.295 114.43 179.861 124.628 175.463 124.781Z" fill="black"/>
<path fill-rule="evenodd" clip-rule="evenodd" d="M204.145 118.499C205.741 118.349 208.64 120.567 207.051 122.713C206.067 124.042 202.823 123.414 201.5 123.691C199.745 124.059 197.914 124.563 198.864 121.426C199.609 118.963 202.272 118.435 204.145 118.499Z" fill="black"/>
<path fill-rule="evenodd" clip-rule="evenodd" d="M202.465 133.253C200.844 131.702 201.567 124.635 204.035 125.907C206.573 127.215 203.818 132.233 202.465 133.253Z" fill="black"/>
<path fill-rule="evenodd" clip-rule="evenodd" d="M173.475 118.93C173.475 119.673 173.474 120.417 173.473 121.157C173.134 120.412 173.144 119.671 173.475 118.93Z" fill="black"/>
<path fill-rule="evenodd" clip-rule="evenodd" d="M175.463 124.78C175.794 124.769 176.125 124.758 176.451 124.748C176.119 124.76 175.791 124.77 175.463 124.78Z" fill="black"/>
<path fill-rule="evenodd" clip-rule="evenodd" d="M375.661 328.281C375.509 331.496 372.616 329.119 372.821 326.969C373.194 323.067 375.043 326.923 375.661 328.281Z" fill="black"/>
<path fill-rule="evenodd" clip-rule="evenodd" d="M449.631 398.231C447.827 399.384 446.022 400.537 444.219 401.689C443.622 399.996 442.615 395.369 441.102 394.778C438.653 393.822 440.212 398.865 440.635 400.018C440.982 400.965 441.787 402.433 441.592 403.562C441.33 405.083 439.713 405.622 438.866 406.407C436.772 408.349 436.788 412.429 439.822 410.7C441.538 409.721 443.664 407.008 444.979 410.089C445.587 411.51 447.026 419.452 448.529 414.259C449.459 411.043 444.982 407.702 447.19 404.982C447.9 404.106 448.732 404.032 449.442 403.529C451.156 402.314 450.189 400.068 449.631 398.231Z" fill="black"/>
<path fill-rule="evenodd" clip-rule="evenodd" d="M133.187 39.5642C131.718 38.9233 129.901 37.6717 128.269 38.0984C126.534 38.5514 125.836 40.6247 124.574 41.8711C121.145 45.2603 119.147 40.209 117.263 37.4407C115.483 34.8269 113.312 34.1924 110.801 35.7986C109.8 36.4388 105.586 39.3724 106.321 41.2521C106.849 42.6047 108.932 41.3904 109.642 41.0951C111.184 40.4548 112.616 39.8943 114.193 40.828C117.151 42.5783 117.918 47.378 121.497 48.1264C125.198 48.9005 125.319 44.6986 127.96 43.1169C129.73 42.0571 130.964 43.9335 132.672 43.5596C134.299 43.2037 135.052 40.3776 133.187 39.5642Z" fill="#FF9F68"/>
<path fill-rule="evenodd" clip-rule="evenodd" d="M103.309 56.4987C104.618 56.8378 105.473 53.809 106.292 53.0407C107.651 51.7672 110.007 51.5105 111.391 52.7923C114.093 55.2941 113.162 60.6955 117.01 62.1035C120.449 63.3621 122.069 57.9575 124.964 56.612C126.647 55.8295 128.495 55.3173 127.838 52.5098C127.384 50.5684 126.048 50.0697 124.595 50.8155C122.098 52.096 121.25 57.3127 118.29 57.406C115.227 57.5026 114.895 52.2344 113.58 49.9397C111.576 46.4424 107.455 45.5975 105.113 48.9417C104.406 49.9507 100.817 55.8546 103.309 56.4987Z" fill="#FF9F68"/>
<path fill-rule="evenodd" clip-rule="evenodd" d="M538.111 217.364C537.755 218.433 534.427 218.073 534.354 216.813C534.246 214.929 538.73 215.506 538.111 217.364ZM541.646 216.665C543.531 216.857 546.63 218.468 548.447 217.495C551.221 216.009 548.308 213.73 546.82 213.048C545.306 212.355 543.051 212.723 542.272 210.733C541.687 209.236 543.134 205.056 541.339 205.728C539.454 206.433 540.002 212.42 537.046 210.402C535.636 209.439 536.211 203.573 533.849 206.57C533.202 207.39 533.146 208.895 532.29 209.506C531.416 210.131 530.32 209.48 529.398 209.534C526.956 209.678 526.178 212.551 528.652 213.69C529.568 214.112 533.02 214.626 530.929 216.508C529.611 217.694 526.684 215.206 525.553 217.27C523.998 220.104 528.164 220.168 529.282 221.016C531.179 222.452 529.613 225.806 529.764 228.194C529.995 231.844 531.681 231.081 532.294 227.993C532.813 225.372 532.169 221.6 535.311 222.642C540.427 224.338 532.466 232.504 536.214 234.594C538.603 235.927 538.941 228.724 539.127 227.483C539.814 222.905 541.859 223.974 544.957 224.114C548.577 224.278 549.45 220.911 545.618 219.947C544.395 219.639 542.712 220.028 541.651 219.049C541.022 218.47 540.158 216.513 541.646 216.665Z" fill="#F85959"/>
<path opacity="0.5" d="M548.272 311.204C545.363 317.391 540.169 319.081 535.919 320.772C527.693 322.428 514.018 323.115 504.262 319.464L497.566 331.916L493.75 310.325C493.439 309.537 493.193 308.703 493.023 307.824C490.001 292.048 491.134 280.971 492.079 277.398C493.335 272.699 500.201 263.425 517.578 263.876C534.956 264.327 544.646 269.702 547.328 272.327C550.633 276.08 555.45 289.118 548.272 311.204Z" fill="#F2A5FF"/>
<path d="M508.804 295.821H505.423L504.809 297.894H503.431L506.377 288.496H507.86L510.797 297.894H509.418L508.804 295.821ZM508.446 294.638L507.123 290.175L505.801 294.638H508.446Z" fill="black"/>
<path d="M513.055 287.889V297.896H511.761V287.889H513.055Z" fill="black"/>
<path d="M519.108 290.808C519.59 291.112 519.968 291.552 520.242 292.138C520.516 292.712 520.648 293.389 520.648 294.166C520.648 294.955 520.516 295.631 520.242 296.206C519.968 296.78 519.59 297.22 519.108 297.535C518.627 297.84 518.079 297.997 517.475 297.997C516.87 297.997 516.332 297.84 515.85 297.535C515.368 297.231 514.991 296.78 514.717 296.206C514.443 295.62 514.301 294.944 514.301 294.166C514.301 293.389 514.443 292.712 514.717 292.138C514.991 291.563 515.368 291.124 515.85 290.808C516.332 290.492 516.87 290.346 517.475 290.346C518.079 290.346 518.627 290.504 519.108 290.808ZM516.558 291.957C516.275 292.138 516.058 292.419 515.888 292.791C515.718 293.163 515.633 293.625 515.633 294.166C515.633 294.718 515.718 295.18 515.888 295.541C516.058 295.901 516.285 296.183 516.558 296.363C516.832 296.544 517.144 296.634 517.475 296.634C517.805 296.634 518.117 296.544 518.391 296.363C518.665 296.183 518.891 295.913 519.061 295.541C519.231 295.169 519.316 294.707 519.316 294.166C519.316 293.625 519.231 293.163 519.061 292.791C518.891 292.419 518.665 292.138 518.391 291.957C518.107 291.777 517.805 291.687 517.475 291.687C517.144 291.687 516.832 291.777 516.558 291.957Z" fill="black"/>
<path d="M527.127 291.157C527.561 291.721 527.788 292.51 527.788 293.546V297.885H526.494V293.704C526.494 293.039 526.352 292.521 526.059 292.16C525.776 291.8 525.379 291.608 524.879 291.608C524.369 291.608 523.953 291.8 523.642 292.194C523.33 292.588 523.179 293.163 523.179 293.918V297.885H521.885V287.878H523.179V292.07C523.349 291.507 523.623 291.078 524.019 290.774C524.416 290.47 524.869 290.312 525.379 290.312C526.107 290.323 526.692 290.594 527.127 291.157Z" fill="black"/>
<path d="M533.246 290.853C533.643 291.191 533.926 291.631 534.096 292.183V290.447H535.39V297.896H534.096V296.161C533.926 296.713 533.643 297.152 533.246 297.49C532.85 297.828 532.358 297.986 531.792 297.986C531.244 297.986 530.762 297.828 530.337 297.524C529.912 297.22 529.572 296.78 529.336 296.194C529.091 295.62 528.977 294.932 528.977 294.155C528.977 293.377 529.1 292.701 529.336 292.126C529.582 291.552 529.912 291.112 530.337 290.797C530.762 290.493 531.253 290.335 531.792 290.335C532.368 290.346 532.85 290.515 533.246 290.853ZM530.819 292.352C530.479 292.791 530.3 293.389 530.3 294.155C530.3 294.921 530.47 295.518 530.819 295.958C531.159 296.397 531.622 296.611 532.198 296.611C532.557 296.611 532.887 296.51 533.171 296.307C533.454 296.104 533.681 295.823 533.851 295.451C534.021 295.079 534.096 294.651 534.096 294.155C534.096 293.67 534.011 293.242 533.851 292.859C533.681 292.487 533.454 292.194 533.171 291.991C532.887 291.788 532.557 291.687 532.198 291.687C531.622 291.698 531.159 291.924 530.819 292.352Z" fill="black"/>
<path d="M86.8308 248.913C86.8497 248.958 79.5776 231.605 79.1148 230.5C81.0981 217.44 81.7687 195.781 63.5223 193.235C36.0584 188.186 20.5036 189.584 9.80328 195.398C1.80397 199.151 -2.81428 223.052 1.88897 234.309C4.45782 240.18 9.58606 241.938 16.8865 244.349C28.7579 248.26 58.0163 245.735 68.3011 243.842C71.4177 244.699 86.7269 248.891 86.8308 248.913Z" fill="#FFAB7C"/>
<path d="M13.5054 215.32C13.9304 215.624 14.2704 216.064 14.5065 216.65C14.7521 217.224 14.8654 217.9 14.8654 218.678C14.8654 219.467 14.7426 220.143 14.5065 220.718C14.261 221.292 13.9304 221.732 13.5054 222.047C13.0804 222.352 12.5893 222.509 12.051 222.509C11.4843 222.509 11.0027 222.34 10.5966 222.013C10.1905 221.687 9.91659 221.225 9.75604 220.673V222.408H8.46217V212.401H9.75604V216.683C9.91659 216.131 10.1905 215.692 10.5966 215.354C11.0027 215.016 11.4843 214.858 12.051 214.858C12.5893 214.858 13.0804 215.016 13.5054 215.32ZM10.6721 216.514C10.3888 216.717 10.1621 217.01 9.99215 217.382C9.82215 217.754 9.74659 218.182 9.74659 218.678C9.74659 219.174 9.83159 219.602 9.99215 219.974C10.1621 220.346 10.3888 220.627 10.6721 220.83C10.9555 221.033 11.286 221.135 11.6449 221.135C12.221 221.135 12.6838 220.92 13.0238 220.481C13.3638 220.041 13.5432 219.444 13.5432 218.678C13.5432 217.923 13.3732 217.326 13.0238 216.875C12.6743 216.435 12.2116 216.21 11.6449 216.21C11.286 216.21 10.9649 216.312 10.6721 216.514Z" fill="black"/>
<path d="M21.8731 214.949V222.398H20.5698V220.787C20.4092 221.339 20.1353 221.767 19.7387 222.06C19.342 222.364 18.8887 222.511 18.3692 222.511C17.642 222.511 17.0659 222.229 16.622 221.677C16.1782 221.125 15.9609 220.325 15.9609 219.288V214.961H17.2548V219.13C17.2548 219.806 17.3965 220.325 17.6892 220.696C17.9726 221.057 18.3692 221.249 18.8698 221.249C19.3798 221.249 19.7953 221.046 20.107 220.651C20.4186 220.257 20.5698 219.682 20.5698 218.916V214.972H21.8731V214.949Z" fill="black"/>
<path d="M27.9176 215.321C28.3992 215.626 28.777 216.065 29.0509 216.651C29.3248 217.226 29.457 217.902 29.457 218.679C29.457 219.468 29.3248 220.144 29.0509 220.719C28.777 221.294 28.3992 221.733 27.9176 222.049C27.4359 222.353 26.8881 222.511 26.2837 222.511C25.6793 222.511 25.1409 222.353 24.6593 222.049C24.1776 221.744 23.7999 221.294 23.526 220.719C23.2521 220.133 23.1104 219.457 23.1104 218.679C23.1104 217.902 23.2521 217.226 23.526 216.651C23.7999 216.076 24.1776 215.637 24.6593 215.321C25.1409 215.006 25.6793 214.859 26.2837 214.859C26.8881 214.859 27.4265 215.017 27.9176 215.321ZM25.3676 216.471C25.0843 216.651 24.8671 216.933 24.6971 217.305C24.5271 217.676 24.4421 218.138 24.4421 218.679C24.4421 219.232 24.5271 219.694 24.6971 220.054C24.8671 220.415 25.0937 220.696 25.3676 220.877C25.6415 221.057 25.9531 221.147 26.2837 221.147C26.6142 221.147 26.9259 221.057 27.1998 220.877C27.4737 220.696 27.7003 220.426 27.8703 220.054C28.0403 219.682 28.1253 219.22 28.1253 218.679C28.1253 218.138 28.0403 217.676 27.8703 217.305C27.7003 216.933 27.4737 216.651 27.1998 216.471C26.9165 216.29 26.6142 216.2 26.2837 216.2C25.9531 216.2 25.6415 216.29 25.3676 216.471Z" fill="black"/>
<path d="M35.9356 215.671C36.37 216.234 36.5967 217.023 36.5967 218.06V222.398H35.3028V218.217C35.3028 217.553 35.1611 217.034 34.8684 216.674C34.585 216.313 34.1884 216.121 33.6878 216.121C33.1778 216.121 32.7623 216.313 32.4506 216.707C32.139 217.102 31.9879 217.676 31.9879 218.431V222.398H30.694V214.949H31.9879V216.583C32.1579 216.02 32.4317 215.592 32.8284 215.288C33.2251 214.983 33.6784 214.825 34.1884 214.825C34.9156 214.837 35.5011 215.107 35.9356 215.671Z" fill="black"/>
<path d="M42.0555 215.355C42.4522 215.693 42.7355 216.133 42.9055 216.685V214.949H44.1994V222.477C44.1994 223.176 44.0766 223.784 43.8405 224.325C43.6044 224.866 43.2644 225.283 42.8111 225.587C42.3672 225.891 41.8383 226.049 41.2244 226.049C40.3461 226.049 39.6378 225.801 39.0995 225.305C38.5612 224.81 38.2212 224.133 38.0889 223.288H39.3734C39.4773 223.728 39.685 224.077 39.9872 224.325C40.2895 224.573 40.6767 224.697 41.1394 224.697C41.6494 224.697 42.0744 224.505 42.405 224.133C42.7355 223.75 42.9055 223.209 42.9055 222.488V220.674C42.7355 221.226 42.4522 221.666 42.0555 222.004C41.6589 222.342 41.1678 222.499 40.6011 222.499C40.0534 222.499 39.5717 222.342 39.1467 222.037C38.7217 221.733 38.3817 221.294 38.1456 220.708C37.9001 220.133 37.7867 219.446 37.7867 218.668C37.7867 217.891 37.9095 217.214 38.1456 216.64C38.3912 216.065 38.7217 215.626 39.1467 215.31C39.5717 215.006 40.0628 214.848 40.6011 214.848C41.1772 214.859 41.6589 215.028 42.0555 215.355ZM39.6284 216.865C39.2884 217.305 39.1089 217.902 39.1089 218.668C39.1089 219.434 39.2789 220.032 39.6284 220.471C39.9684 220.911 40.4311 221.125 41.0072 221.125C41.3661 221.125 41.6967 221.023 41.98 220.82C42.2633 220.618 42.49 220.336 42.66 219.964C42.83 219.592 42.9055 219.164 42.9055 218.668C42.9055 218.184 42.8205 217.755 42.66 217.372C42.49 217 42.2633 216.707 41.98 216.505C41.6967 216.302 41.3661 216.2 41.0072 216.2C40.4311 216.212 39.9684 216.426 39.6284 216.865Z" fill="black"/>
<path d="M45.7956 212.144C45.9467 211.974 46.145 211.884 46.4 211.884C46.6455 211.884 46.8533 211.974 47.0044 212.144C47.1555 212.313 47.2405 212.527 47.2405 212.797C47.2405 213.056 47.165 213.27 47.0044 213.428C46.8533 213.586 46.6455 213.676 46.4 213.676C46.1544 213.676 45.9467 213.597 45.7956 213.428C45.6444 213.27 45.5689 213.056 45.5689 212.797C45.5689 212.527 45.6444 212.313 45.7956 212.144ZM47.0422 214.949V222.398H45.7483V214.949H47.0422Z" fill="black"/>
<path d="M53.096 215.321C53.5776 215.626 53.9554 216.065 54.2293 216.651C54.5032 217.226 54.6354 217.902 54.6354 218.679C54.6354 219.468 54.5032 220.144 54.2293 220.719C53.9554 221.294 53.5776 221.733 53.096 222.049C52.6143 222.353 52.0665 222.511 51.4621 222.511C50.8577 222.511 50.3193 222.353 49.8377 222.049C49.356 221.744 48.9782 221.294 48.7044 220.719C48.4305 220.133 48.2888 219.457 48.2888 218.679C48.2888 217.902 48.4305 217.226 48.7044 216.651C48.9782 216.076 49.356 215.637 49.8377 215.321C50.3193 215.006 50.8577 214.859 51.4621 214.859C52.0665 214.859 52.6143 215.017 53.096 215.321ZM50.546 216.471C50.2627 216.651 50.0455 216.933 49.8755 217.305C49.7055 217.676 49.6205 218.138 49.6205 218.679C49.6205 219.232 49.7055 219.694 49.8755 220.054C50.0455 220.415 50.2721 220.696 50.546 220.877C50.8199 221.057 51.1315 221.147 51.4621 221.147C51.7926 221.147 52.1043 221.057 52.3782 220.877C52.6521 220.696 52.8787 220.426 53.0487 220.054C53.2187 219.682 53.3037 219.22 53.3037 218.679C53.3037 218.138 53.2187 217.676 53.0487 217.305C52.8787 216.933 52.6521 216.651 52.3782 216.471C52.0949 216.29 51.7926 216.2 51.4621 216.2C51.1315 216.2 50.8293 216.29 50.546 216.471Z" fill="black"/>
<path d="M58.0825 215.254C58.4792 214.972 58.9325 214.825 59.4425 214.825V216.505H59.0553C58.4886 216.505 58.0353 216.674 57.6859 217C57.3459 217.327 57.1664 217.868 57.1664 218.634V222.409H55.8726V214.961H57.1664V216.426C57.3837 215.93 57.6859 215.547 58.0825 215.254Z" fill="black"/>
<path d="M65.6379 215.671C66.0723 216.234 66.299 217.023 66.299 218.06V222.398H65.0051V218.217C65.0051 217.553 64.8634 217.034 64.5707 216.674C64.2873 216.313 63.8907 216.121 63.3901 216.121C62.8801 216.121 62.4646 216.313 62.1529 216.707C61.8413 217.102 61.6902 217.676 61.6902 218.431V222.398H60.3963V214.949H61.6902V216.583C61.8602 216.02 62.134 215.592 62.5307 215.288C62.9274 214.983 63.3807 214.825 63.8907 214.825C64.6179 214.837 65.2034 215.107 65.6379 215.671Z" fill="black"/>
<path d="M72.2962 215.321C72.7778 215.626 73.1556 216.065 73.4295 216.651C73.7034 217.226 73.8356 217.902 73.8356 218.679C73.8356 219.468 73.7034 220.144 73.4295 220.719C73.1556 221.294 72.7778 221.733 72.2962 222.049C71.8145 222.353 71.2667 222.511 70.6623 222.511C70.0579 222.511 69.5195 222.353 69.0379 222.049C68.5562 221.744 68.1785 221.294 67.9046 220.719C67.6307 220.133 67.489 219.457 67.489 218.679C67.489 217.902 67.6307 217.226 67.9046 216.651C68.1785 216.076 68.5562 215.637 69.0379 215.321C69.5195 215.006 70.0579 214.859 70.6623 214.859C71.2667 214.859 71.8145 215.017 72.2962 215.321ZM69.7462 216.471C69.4629 216.651 69.2457 216.933 69.0757 217.305C68.9057 217.676 68.8207 218.138 68.8207 218.679C68.8207 219.232 68.9057 219.694 69.0757 220.054C69.2457 220.415 69.4723 220.696 69.7462 220.877C70.0201 221.057 70.3318 221.147 70.6623 221.147C70.9929 221.147 71.3045 221.057 71.5784 220.877C71.8523 220.696 72.0789 220.426 72.2489 220.054C72.4189 219.682 72.5039 219.22 72.5039 218.679C72.5039 218.138 72.4189 217.676 72.2489 217.305C72.0789 216.933 71.8523 216.651 71.5784 216.471C71.2951 216.29 70.9929 216.2 70.6623 216.2C70.3318 216.2 70.0201 216.29 69.7462 216.471Z" fill="black"/>
<path opacity="0.5" d="M475.97 73.8242L461.587 68.3251C452.218 71.8747 438.59 71.469 430.26 70.2971C420.438 68.9449 415.461 56.5831 414.205 50.5769C410.805 30.744 415.253 24.8167 420.344 21.2783C423.649 19.0246 434.038 14.7425 449.149 15.644C464.259 16.5454 470.559 26.9126 471.815 31.9836C472.287 33.8654 472.948 41.4493 471.815 56.7747C471.758 57.5747 471.626 58.341 471.428 59.0622L475.97 73.8242Z" fill="#FFAB7C"/>
<path d="M436.116 38.0788V47.6347H434.812V43.3526H431.053V47.6347H429.76V38.0901H431.053V42.0905H434.812V38.0901H436.116V38.0788Z" fill="black"/>
<path d="M442.169 40.5479C442.651 40.8522 443.029 41.2916 443.303 41.8776C443.577 42.4523 443.709 43.1284 443.709 43.8947C443.709 44.6835 443.577 45.3596 443.303 45.9343C443.029 46.509 442.651 46.9485 442.169 47.264C441.688 47.5683 441.14 47.7261 440.535 47.7261C439.931 47.7261 439.393 47.5683 438.911 47.264C438.429 46.9598 438.052 46.509 437.778 45.9343C437.504 45.3484 437.362 44.6723 437.362 43.8947C437.362 43.1172 437.504 42.441 437.778 41.8663C438.052 41.2916 438.429 40.8522 438.911 40.5366C439.393 40.2211 439.931 40.0859 440.535 40.0859C441.14 40.0859 441.688 40.2437 442.169 40.5479ZM439.619 41.6973C439.336 41.8776 439.119 42.1593 438.949 42.5312C438.779 42.9031 438.694 43.3651 438.694 43.906C438.694 44.4581 438.779 44.9202 438.949 45.2808C439.119 45.6414 439.345 45.9231 439.619 46.1034C439.893 46.2837 440.205 46.3738 440.535 46.3738C440.866 46.3738 441.178 46.2837 441.452 46.1034C441.725 45.9231 441.952 45.6526 442.122 45.2808C442.292 44.9089 442.377 44.4469 442.377 43.906C442.377 43.3651 442.292 42.9031 442.122 42.5312C441.952 42.1593 441.725 41.8776 441.452 41.6973C441.168 41.517 440.866 41.4269 440.535 41.4269C440.205 41.4269 439.893 41.517 439.619 41.6973Z" fill="black"/>
<path d="M446.249 37.6293V47.6359H444.955V37.6293H446.249Z" fill="black"/>
<path d="M451.764 40.5818C452.161 40.9198 452.444 41.3593 452.614 41.9115V40.1761H453.908V47.636H452.614V45.9006C452.444 46.4527 452.161 46.8922 451.764 47.2303C451.368 47.5683 450.886 47.7261 450.319 47.7261C449.772 47.7261 449.29 47.5683 448.865 47.2641C448.44 46.9598 448.1 46.5203 447.864 45.9344C447.618 45.3597 447.505 44.6723 447.505 43.8947C447.505 43.1172 447.628 42.4411 447.864 41.8664C448.11 41.2917 448.44 40.8522 448.865 40.5367C449.29 40.2324 449.781 40.0747 450.319 40.0747C450.886 40.0859 451.368 40.255 451.764 40.5818ZM449.337 42.0918C448.997 42.5312 448.818 43.1285 448.818 43.8947C448.818 44.661 448.988 45.2583 449.337 45.6977C449.677 46.1372 450.14 46.3513 450.716 46.3513C451.075 46.3513 451.406 46.2499 451.689 46.0471C451.972 45.8442 452.199 45.5625 452.369 45.1906C452.539 44.8188 452.614 44.3906 452.614 43.8947C452.614 43.4102 452.529 42.982 452.369 42.5988C452.199 42.227 451.972 41.934 451.689 41.7312C451.406 41.5283 451.075 41.4269 450.716 41.4269C450.14 41.4382 449.677 41.6523 449.337 42.0918Z" fill="black"/>
<path d="M361.585 109.033C359.483 122.703 350.51 129.643 343.99 131.194C330.216 134.436 320.324 133.293 313.462 130.378V130.389L300.803 141.295L303.08 122.376C301.761 120.557 300.92 118.749 300.49 117.198C296.189 93.8706 303.589 82.592 307.821 79.8744C313.687 75.6755 331.771 75.4072 340.08 75.7921C361.585 74.3925 363.374 97.3697 361.585 109.033Z" fill="#FFF6A5"/>
<path d="M321.448 96.8794L322.963 97.4626C322.69 98.5007 322.387 99.5037 322.035 100.495V110.176H320.5V104.134C320.236 104.682 319.952 105.219 319.649 105.744L319.17 103.108C320.099 101.288 320.862 99.2121 321.448 96.8794ZM322.387 107.353C322.914 106.035 323.393 104.519 323.833 102.816L325.3 103.283C324.889 105.009 324.4 106.618 323.833 108.123C323.393 107.855 322.914 107.61 322.387 107.353ZM330.285 98.5706V100.157L329.757 102.548L328.242 102.198L328.682 100.262H324.899C324.498 101.3 324.068 102.21 323.608 102.979C323.305 102.665 322.905 102.28 322.406 101.836C323.159 100.495 323.775 98.8622 324.273 96.9377L325.896 97.1943C325.759 97.6726 325.622 98.1274 325.485 98.5706H330.285ZM327.391 101.09V108.298C327.391 108.835 327.294 109.254 327.108 109.546C326.922 109.838 326.609 110.001 326.179 110.048C325.749 110.094 325.153 110.106 324.381 110.106C324.322 109.569 324.224 108.986 324.097 108.345C324.469 108.38 324.791 108.403 325.045 108.403C325.339 108.403 325.534 108.356 325.642 108.275C325.749 108.193 325.798 108.018 325.798 107.762V101.09H327.391ZM329.219 102.944C329.552 103.936 329.992 105.487 330.539 107.61L328.965 108.216C328.564 106.362 328.183 104.752 327.812 103.399L329.219 102.944Z" fill="black"/>
<path d="M330.911 99.2709H332.26C332.357 98.4894 332.455 97.6613 332.543 96.7866L334.136 96.9615L333.814 99.2709H336.072C336.003 102.373 335.603 104.788 334.85 106.514L336.463 108.159L335.319 109.616C334.879 109.08 334.449 108.555 334 108.042C333.423 108.87 332.739 109.593 331.937 110.176C331.585 109.616 331.243 109.103 330.911 108.66C331.673 108.124 332.328 107.482 332.856 106.736C332.328 106.152 331.81 105.581 331.272 105.009C331.556 103.855 331.8 102.513 332.035 100.974H330.92V99.2709H330.911ZM332.905 104.543L333.638 105.289C334.087 104.17 334.361 102.735 334.478 100.974H333.55C333.335 102.21 333.13 103.4 332.905 104.543ZM336.082 102.677H338.535V101.382L340.129 99.2359H336.482V97.4397H342.103V99.3759L340.158 102.058V102.677H342.299V104.519H340.158V107.89C340.158 108.194 340.109 108.532 340.001 108.905C339.894 109.278 339.718 109.593 339.444 109.838C339.171 110.083 338.74 110.211 338.134 110.223C337.528 110.235 337.069 110.235 336.737 110.235C336.668 109.593 336.57 108.987 336.453 108.392C337.079 108.473 337.528 108.508 337.812 108.508C338.291 108.508 338.525 108.112 338.525 107.33V104.519H336.072V102.677H336.082Z" fill="black"/>
<path d="M272.716 58.3031L258.332 52.8039C248.963 56.3536 235.335 55.9479 227.006 54.776C217.183 53.4237 212.206 41.062 210.95 35.0558C207.55 15.2229 211.999 9.29553 217.089 5.75716C220.395 3.50343 230.783 -0.778676 245.894 0.122819C261.005 1.02431 267.304 11.3915 268.56 16.4624C269.033 18.3443 269.694 25.9281 268.56 41.2535C268.504 42.0536 268.371 42.8199 268.173 43.5411L272.716 58.3031Z" fill="#BEFFA7"/>
<path d="M232.861 22.5576V32.1134H231.558V27.8313H227.799V32.1134H226.505V22.5689H227.799V26.5692H231.558V22.5689H232.861V22.5576Z" fill="black"/>
<path d="M238.915 25.0267C239.396 25.3309 239.774 25.7704 240.048 26.3564C240.322 26.9311 240.454 27.6072 240.454 28.3735C240.454 29.1623 240.322 29.8384 240.048 30.4131C239.774 30.9878 239.396 31.4273 238.915 31.7428C238.433 32.047 237.885 32.2048 237.281 32.2048C236.676 32.2048 236.138 32.047 235.656 31.7428C235.175 31.4385 234.797 30.9878 234.523 30.4131C234.249 29.8271 234.108 29.151 234.108 28.3735C234.108 27.5959 234.249 26.9198 234.523 26.3451C234.797 25.7704 235.175 25.3309 235.656 25.0154C236.138 24.6999 236.676 24.5646 237.281 24.5646C237.885 24.5646 238.433 24.7224 238.915 25.0267ZM236.365 26.1761C236.081 26.3564 235.864 26.6381 235.694 27.0099C235.524 27.3818 235.439 27.8438 235.439 28.3847C235.439 28.9369 235.524 29.3989 235.694 29.7595C235.864 30.1201 236.091 30.4018 236.365 30.5821C236.639 30.7624 236.95 30.8526 237.281 30.8526C237.611 30.8526 237.923 30.7624 238.197 30.5821C238.471 30.4018 238.697 30.1314 238.867 29.7595C239.037 29.3876 239.122 28.9256 239.122 28.3847C239.122 27.8438 239.037 27.3818 238.867 27.0099C238.697 26.6381 238.471 26.3564 238.197 26.1761C237.914 25.9958 237.611 25.9056 237.281 25.9056C236.95 25.9056 236.639 25.9958 236.365 26.1761Z" fill="black"/>
<path d="M242.995 22.1081V32.1147H241.701V22.1081H242.995Z" fill="black"/>
<path d="M248.51 25.0604C248.907 25.3985 249.19 25.838 249.36 26.3902V24.6548H250.654V32.1146H249.36V30.3793C249.19 30.9314 248.907 31.3709 248.51 31.709C248.113 32.047 247.632 32.2048 247.065 32.2048C246.517 32.2048 246.036 32.047 245.611 31.7428C245.186 31.4385 244.846 30.999 244.61 30.4131C244.364 29.8384 244.251 29.151 244.251 28.3734C244.251 27.5959 244.374 26.9198 244.61 26.3451C244.855 25.7704 245.186 25.3309 245.611 25.0154C246.036 24.7111 246.527 24.5534 247.065 24.5534C247.632 24.5646 248.113 24.7337 248.51 25.0604ZM246.083 26.5705C245.743 27.0099 245.564 27.6072 245.564 28.3734C245.564 29.1397 245.734 29.737 246.083 30.1764C246.423 30.6159 246.886 30.83 247.462 30.83C247.821 30.83 248.151 30.7286 248.435 30.5258C248.718 30.3229 248.945 30.0412 249.115 29.6693C249.285 29.2975 249.36 28.8693 249.36 28.3734C249.36 27.8889 249.275 27.4607 249.115 27.0775C248.945 26.7057 248.718 26.4127 248.435 26.2099C248.151 26.007 247.821 25.9056 247.462 25.9056C246.886 25.9169 246.423 26.131 246.083 26.5705Z" fill="black"/>
<path opacity="0.5" d="M81.6001 74.5064C78.6912 80.6929 73.4969 82.3832 69.247 84.0735C61.021 85.73 47.3457 86.4174 37.5898 82.7664L30.8938 95.2183L27.0783 73.6275C26.7666 72.8387 26.5211 72.0048 26.3511 71.1258C23.3289 55.3497 24.4622 44.2725 25.4066 40.7004C26.6627 36.0013 33.5287 26.7272 50.9062 27.1779C68.2837 27.6287 77.9735 33.0038 80.6557 35.6294C83.9612 39.3819 88.7777 52.4198 81.6001 74.5064Z" fill="#FFC2C2"/>
<path d="M42.1325 59.123H38.7514L38.1375 61.1964H36.7587L39.7053 51.7984H41.188L44.1252 61.1964H42.7463L42.1325 59.123ZM41.7736 57.9398L40.4514 53.4774L39.1292 57.9398H41.7736Z" fill="black"/>
<path d="M46.3822 51.1913V61.1979H45.0884V51.1913H46.3822Z" fill="black"/>
<path d="M52.4361 54.1101C52.9177 54.4144 53.2955 54.8539 53.5694 55.4398C53.8433 56.0145 53.9755 56.6906 53.9755 57.4682C53.9755 58.257 53.8433 58.9331 53.5694 59.5078C53.2955 60.0825 52.9177 60.522 52.4361 60.8375C51.9544 61.1418 51.4067 61.2995 50.8022 61.2995C50.1978 61.2995 49.6595 61.1418 49.1778 60.8375C48.6962 60.5333 48.3184 60.0825 48.0445 59.5078C47.7706 58.9218 47.629 58.2457 47.629 57.4682C47.629 56.6906 47.7706 56.0145 48.0445 55.4398C48.3184 54.8651 48.6962 54.4256 49.1778 54.1101C49.6595 53.7946 50.1978 53.6481 50.8022 53.6481C51.4067 53.6481 51.9544 53.8059 52.4361 54.1101ZM49.8861 55.2595C49.6028 55.4398 49.3856 55.7215 49.2156 56.0934C49.0456 56.4653 48.9606 56.9273 48.9606 57.4682C48.9606 58.0204 49.0456 58.4824 49.2156 58.843C49.3856 59.2036 49.6122 59.4853 49.8861 59.6656C50.16 59.8459 50.4717 59.936 50.8022 59.936C51.1328 59.936 51.4444 59.8459 51.7183 59.6656C51.9922 59.4853 52.2189 59.2148 52.3889 58.843C52.5589 58.4711 52.6439 58.0091 52.6439 57.4682C52.6439 56.9273 52.5589 56.4653 52.3889 56.0934C52.2189 55.7215 51.9922 55.4398 51.7183 55.2595C51.435 55.0792 51.1328 54.9891 50.8022 54.9891C50.4717 54.9891 50.16 55.0792 49.8861 55.2595Z" fill="black"/>
<path d="M60.4544 54.4594C60.8888 55.0229 61.1155 55.8117 61.1155 56.8484V61.1868H59.8216V57.0062C59.8216 56.3413 59.68 55.8229 59.3872 55.4623C59.1039 55.1017 58.7072 54.9102 58.2067 54.9102C57.6967 54.9102 57.2811 55.1017 56.9695 55.4961C56.6578 55.8905 56.5067 56.4653 56.5067 57.2203V61.1868H55.2128V51.1802H56.5067V55.3722C56.6767 54.8088 56.9506 54.3805 57.3472 54.0763C57.7439 53.772 58.1972 53.6143 58.7072 53.6143C59.4344 53.6255 60.02 53.896 60.4544 54.4594Z" fill="black"/>
<path d="M66.5742 54.1553C66.9708 54.4933 67.2542 54.9328 67.4242 55.485V53.7496H68.718V61.1982H67.4242V59.4628C67.2542 60.015 66.9708 60.4545 66.5742 60.7925C66.1775 61.1306 65.6864 61.2883 65.1198 61.2883C64.572 61.2883 64.0903 61.1306 63.6653 60.8263C63.2404 60.5221 62.9004 60.0826 62.6643 59.4966C62.4187 58.9219 62.3054 58.2345 62.3054 57.457C62.3054 56.6794 62.4281 56.0033 62.6643 55.4286C62.9098 54.8539 63.2404 54.4144 63.6653 54.0989C64.0903 53.7947 64.5814 53.6369 65.1198 53.6369C65.6959 53.6482 66.1775 53.8172 66.5742 54.1553ZM64.147 55.654C63.807 56.0935 63.6276 56.6907 63.6276 57.457C63.6276 58.2233 63.7976 58.8205 64.147 59.26C64.487 59.6995 64.9498 59.9136 65.5259 59.9136C65.8848 59.9136 66.2153 59.8121 66.4986 59.6093C66.782 59.4065 67.0086 59.1248 67.1786 58.7529C67.3486 58.381 67.4242 57.9528 67.4242 57.457C67.4242 56.9724 67.3392 56.5442 67.1786 56.1611C67.0086 55.7892 66.782 55.4962 66.4986 55.2934C66.2153 55.0906 65.8848 54.9891 65.5259 54.9891C64.9498 55.0004 64.487 55.2258 64.147 55.654Z" fill="black"/>
</svg>
